<svg width="366" height="366" viewBox="0 0 366 366" fill="none" xmlns="http://www.w3.org/2000/svg">
<path d="M183 312.974C261.384 312.974 324.927 309.264 324.927 304.688C324.927 300.111 261.384 296.401 183 296.401C104.615 296.401 41.0723 300.111 41.0723 304.688C41.0723 309.264 104.615 312.974 183 312.974Z" fill="#F5F5F5"/>
<path d="M179.252 51.6572H174.574V52.4112H179.252V51.6572Z" fill="#B5B9BF"/>
<path d="M239.801 81.4983L239.235 94.0613L239.989 94.0952L240.555 81.5322L239.801 81.4983Z" fill="#B5B9BF"/>
<path d="M238.347 55.0391H151.971L143.934 234.906H230.31L238.347 55.0391Z" fill="#B5B9BF"/>
<path opacity="0.56" d="M235.77 57.5132H149.394L141.356 237.38H227.732L235.77 57.5132Z" fill="#FAFAFA"/>
<path opacity="0.07" d="M233.193 59.98H146.817L138.772 239.847H225.148L233.193 59.98Z" fill="#B5B9BF"/>
<path d="M223.362 138.428H149.635L149.021 152.19H222.748L223.362 138.428Z" fill="white"/>
<path d="M190.18 128.385H150.081L149.811 134.542H189.91L190.18 128.385Z" fill="#B5B9BF"/>
<path d="M221.7 175.57H147.973L147.358 189.332H221.085L221.7 175.57Z" fill="white"/>
<path opacity="0.47" d="M208.181 207.917H158.603L157.863 224.409H207.442L208.181 207.917Z" fill="#B5B9BF"/>
<path d="M204.865 226.971H155.286C155.265 226.977 155.242 226.977 155.22 226.971C155.213 226.95 155.213 226.927 155.22 226.905L155.952 210.406C155.952 210.395 155.955 210.384 155.959 210.373C155.964 210.363 155.97 210.354 155.978 210.346C155.987 210.339 155.996 210.333 156.007 210.329C156.018 210.326 156.029 210.324 156.04 210.325H205.618C205.628 210.321 205.638 210.319 205.648 210.319C205.658 210.319 205.668 210.321 205.677 210.325C205.682 210.334 205.685 210.344 205.685 210.355C205.685 210.365 205.682 210.375 205.677 210.384L204.96 226.92C204.951 226.937 204.937 226.951 204.92 226.96C204.903 226.97 204.884 226.973 204.865 226.971V226.971ZM155.374 226.795H204.777L205.509 210.472H156.106L155.374 226.795Z" fill="white"/>
<path d="M181.521 165.527H148.42L148.149 171.691H181.243L181.521 165.527Z" fill="#B5B9BF"/>
<path d="M207.236 93.9741C207.047 97.9791 205.623 101.827 203.159 104.991C201.335 107.38 198.988 109.32 196.298 110.661C193.608 112.002 190.646 112.709 187.641 112.728C185.212 112.746 182.804 112.267 180.568 111.321C178.331 110.374 176.311 108.979 174.634 107.222C172.957 105.465 171.657 103.383 170.814 101.105C169.972 98.8263 169.605 96.3996 169.736 93.9741C169.993 88.9409 172.164 84.1961 175.804 80.7101C179.443 77.2242 184.277 75.2603 189.317 75.2203C191.748 75.1976 194.157 75.6736 196.397 76.619C198.637 77.5643 200.659 78.9589 202.338 80.7165C204.017 82.4741 205.318 84.5574 206.161 86.8377C207.003 89.118 207.369 91.5468 207.236 93.9741V93.9741Z" fill="white"/>
<path d="M209 79.1438C208.953 80.2087 208.574 81.2323 207.917 82.0718C207.431 82.7064 206.806 83.2216 206.091 83.5781C205.375 83.9346 204.588 84.1229 203.789 84.1287C203.014 84.1334 202.25 83.9484 201.564 83.5899C200.877 83.2313 200.289 82.7101 199.85 82.0718C199.27 81.2093 198.982 80.1826 199.031 79.1438C199.101 77.8075 199.679 76.5485 200.646 75.6235C201.614 74.6986 202.897 74.1774 204.235 74.1662C204.881 74.1603 205.521 74.2867 206.116 74.5375C206.71 74.7883 207.248 75.1583 207.694 75.6247C208.141 76.091 208.487 76.6438 208.711 77.249C208.936 77.8543 209.034 78.4991 209 79.1438V79.1438Z" fill="#B5B9BF"/>
<path d="M157.577 145.309C157.542 145.899 157.284 146.454 156.856 146.861C156.429 147.269 155.862 147.499 155.271 147.505C154.986 147.509 154.703 147.454 154.44 147.343C154.177 147.233 153.939 147.07 153.741 146.864C153.544 146.658 153.391 146.414 153.291 146.147C153.192 145.879 153.148 145.594 153.163 145.309C153.195 144.718 153.451 144.162 153.88 143.753C154.308 143.345 154.877 143.116 155.469 143.113C155.754 143.111 156.036 143.167 156.299 143.278C156.562 143.388 156.799 143.551 156.996 143.757C157.194 143.963 157.347 144.206 157.447 144.473C157.547 144.74 157.591 145.025 157.577 145.309V145.309Z" fill="#263238"/>
<path d="M167.445 145.309C167.411 145.9 167.154 146.455 166.726 146.863C166.298 147.271 165.73 147.501 165.139 147.505C164.854 147.508 164.572 147.452 164.31 147.341C164.048 147.23 163.811 147.067 163.614 146.861C163.417 146.656 163.264 146.412 163.165 146.145C163.066 145.878 163.023 145.594 163.038 145.309C163.07 144.72 163.325 144.164 163.752 143.756C164.179 143.348 164.746 143.118 165.337 143.113C165.622 143.11 165.905 143.165 166.168 143.275C166.431 143.386 166.669 143.549 166.866 143.755C167.064 143.961 167.217 144.205 167.317 144.472C167.416 144.74 167.46 145.025 167.445 145.309V145.309Z" fill="#263238"/>
<path d="M177.32 145.309C177.286 145.9 177.029 146.456 176.601 146.863C176.173 147.271 175.605 147.501 175.014 147.505C174.729 147.508 174.447 147.452 174.184 147.341C173.921 147.231 173.684 147.067 173.487 146.862C173.289 146.656 173.136 146.412 173.036 146.146C172.936 145.879 172.892 145.594 172.906 145.309C172.939 144.719 173.196 144.163 173.625 143.756C174.053 143.348 174.62 143.118 175.212 143.113C175.497 143.11 175.78 143.165 176.043 143.275C176.306 143.386 176.544 143.549 176.741 143.755C176.939 143.961 177.092 144.205 177.192 144.472C177.291 144.74 177.335 145.025 177.32 145.309V145.309Z" fill="#263238"/>
<path d="M155.916 182.451C155.88 183.041 155.623 183.595 155.195 184.003C154.767 184.41 154.201 184.641 153.61 184.647C153.325 184.649 153.042 184.593 152.78 184.483C152.517 184.372 152.28 184.209 152.082 184.003C151.885 183.798 151.732 183.554 151.632 183.287C151.532 183.02 151.488 182.736 151.502 182.451C151.535 181.86 151.792 181.305 152.22 180.897C152.648 180.489 153.216 180.26 153.807 180.255C154.092 180.253 154.375 180.308 154.637 180.419C154.9 180.53 155.137 180.693 155.335 180.899C155.532 181.104 155.685 181.348 155.785 181.615C155.885 181.882 155.929 182.166 155.916 182.451Z" fill="#263238"/>
<path d="M165.784 182.451C165.75 183.04 165.494 183.595 165.068 184.002C164.641 184.41 164.075 184.64 163.485 184.647C163.2 184.65 162.917 184.595 162.654 184.485C162.391 184.375 162.153 184.211 161.955 184.006C161.758 183.8 161.604 183.556 161.505 183.288C161.405 183.021 161.362 182.736 161.377 182.451C161.41 181.86 161.667 181.305 162.096 180.897C162.524 180.489 163.091 180.26 163.683 180.255C163.967 180.253 164.25 180.308 164.512 180.419C164.774 180.53 165.011 180.693 165.208 180.899C165.405 181.105 165.557 181.348 165.656 181.615C165.755 181.882 165.799 182.167 165.784 182.451V182.451Z" fill="#263238"/>
<path d="M175.68 182.451C175.646 183.041 175.389 183.597 174.961 184.005C174.533 184.413 173.965 184.642 173.374 184.647C173.089 184.648 172.807 184.592 172.545 184.481C172.283 184.37 172.046 184.206 171.849 184.001C171.652 183.796 171.498 183.552 171.398 183.286C171.298 183.019 171.253 182.735 171.266 182.451C171.301 181.861 171.558 181.307 171.986 180.899C172.414 180.492 172.981 180.261 173.572 180.255C173.857 180.252 174.14 180.307 174.403 180.417C174.666 180.527 174.904 180.691 175.101 180.896C175.299 181.102 175.452 181.346 175.552 181.614C175.651 181.881 175.695 182.166 175.68 182.451V182.451Z" fill="#263238"/>
<path d="M185.532 182.451C185.497 183.041 185.24 183.595 184.812 184.003C184.384 184.41 183.817 184.641 183.227 184.647C182.942 184.648 182.66 184.592 182.398 184.481C182.136 184.37 181.899 184.206 181.702 184.001C181.504 183.796 181.351 183.552 181.251 183.286C181.151 183.019 181.105 182.735 181.118 182.451C181.154 181.861 181.411 181.307 181.839 180.899C182.267 180.491 182.833 180.261 183.424 180.255C183.709 180.253 183.992 180.308 184.254 180.419C184.517 180.53 184.754 180.693 184.952 180.899C185.149 181.104 185.302 181.348 185.402 181.615C185.502 181.882 185.546 182.166 185.532 182.451V182.451Z" fill="#263238"/>
<path d="M195.444 182.451C195.409 183.041 195.152 183.595 194.724 184.003C194.296 184.41 193.729 184.641 193.138 184.647C192.853 184.65 192.57 184.595 192.307 184.485C192.044 184.375 191.806 184.211 191.609 184.006C191.411 183.8 191.258 183.556 191.158 183.288C191.059 183.021 191.015 182.736 191.03 182.451C191.064 181.86 191.321 181.305 191.749 180.897C192.177 180.489 192.745 180.26 193.336 180.255C193.621 180.253 193.904 180.308 194.166 180.419C194.429 180.53 194.666 180.693 194.863 180.899C195.061 181.104 195.214 181.348 195.314 181.615C195.414 181.882 195.458 182.166 195.444 182.451Z" fill="#263238"/>
<path d="M193.946 92.9975C197.009 90.0014 197.172 85.1989 194.309 82.271C191.445 79.343 186.641 79.3983 183.577 82.3944C180.513 85.3905 180.35 90.1929 183.214 93.1209C186.077 96.0488 190.882 95.9936 193.946 92.9975Z" fill="#B5B9BF"/>
<path d="M203.159 104.991C201.335 107.38 198.988 109.32 196.298 110.661C193.608 112.002 190.647 112.709 187.641 112.728C184.726 112.753 181.85 112.06 179.266 110.711C176.683 109.361 174.47 107.397 172.825 104.991C176.383 101.448 182.012 99.1348 188.248 99.1348C194.485 99.1348 199.917 101.448 203.159 104.991Z" fill="#B5B9BF"/>
<path opacity="0.1" d="M193.946 92.9975C197.009 90.0014 197.172 85.1989 194.309 82.271C191.445 79.343 186.641 79.3983 183.577 82.3944C180.513 85.3905 180.35 90.1929 183.214 93.1209C186.077 96.0488 190.882 95.9936 193.946 92.9975Z" fill="white"/>
<path opacity="0.1" d="M203.159 104.991C201.335 107.38 198.988 109.32 196.298 110.661C193.608 112.002 190.647 112.709 187.641 112.728C184.726 112.753 181.85 112.06 179.266 110.711C176.683 109.361 174.47 107.397 172.825 104.991C176.383 101.448 182.012 99.1348 188.248 99.1348C194.485 99.1348 199.917 101.448 203.159 104.991Z" fill="white"/>
<path d="M95.4599 155.506C94.7645 157.029 94.0325 158.705 93.3957 160.33C92.7588 161.955 92.1074 163.631 91.5437 165.3C90.3929 168.589 89.5164 171.968 88.9232 175.402L88.7621 176.478C88.7468 176.662 88.7641 176.848 88.8134 177.027C88.9861 177.634 89.2582 178.207 89.6186 178.725C90.5586 180.065 91.6491 181.293 92.8686 182.385C94.1545 183.581 95.5033 184.708 96.9093 185.76C98.3147 186.843 99.7934 187.897 101.25 188.893L99.8812 191.462C96.4029 189.946 93.1013 188.054 90.0358 185.818C88.4003 184.625 86.9243 183.228 85.6438 181.66C84.8848 180.727 84.2929 179.67 83.8943 178.535C83.6626 177.826 83.544 177.085 83.543 176.339C83.543 176.163 83.543 175.907 83.543 175.782V175.424L83.6162 174.692C84.0358 170.878 84.8377 167.116 86.0098 163.463C86.5808 161.662 87.1883 159.869 87.8837 158.119C88.5791 156.37 89.2965 154.657 90.1822 152.878L95.4599 155.506Z" fill="#E58A7B"/>
<path d="M100.218 188.439L105.393 185.818L104.054 191.498C104.054 191.498 100.503 192.494 98.8564 190.766L100.218 188.439Z" fill="#E58A7B"/>
<path d="M110.129 186.748L108.753 191.447L104.054 191.498L105.393 185.818L110.129 186.748Z" fill="#E58A7B"/>
<path d="M117.435 128.1C117.711 129.115 118.097 130.096 118.584 131.028C118.441 131.189 118.258 131.309 118.053 131.375C117.848 131.441 117.63 131.45 117.42 131.401L117.435 128.1Z" fill="#DF5753"/>
<path d="M117.281 128.144C117.585 128.144 117.83 127.767 117.83 127.302C117.83 126.837 117.585 126.46 117.281 126.46C116.978 126.46 116.732 126.837 116.732 127.302C116.732 127.767 116.978 128.144 117.281 128.144Z" fill="#263238"/>
<path d="M117.12 126.49L118.233 126.175C118.233 126.175 117.691 127.039 117.12 126.49Z" fill="#263238"/>
<path d="M103.139 133.473C103.805 136.877 104.471 143.121 102.085 145.397C102.085 145.397 103.022 148.852 109.354 148.852C116.315 148.852 112.677 145.397 112.677 145.397C108.878 144.49 108.973 141.671 109.639 139.021L103.139 133.473Z" fill="#E58A7B"/>
<path d="M101.287 125.714C101.638 131.401 101.668 133.817 104.537 136.738C108.863 141.13 115.773 139.461 117.127 133.81C118.35 128.686 117.574 120.253 112.003 117.991C110.781 117.487 109.45 117.304 108.136 117.458C106.823 117.612 105.57 118.099 104.498 118.872C103.425 119.645 102.567 120.679 102.005 121.876C101.443 123.074 101.196 124.394 101.287 125.714V125.714Z" fill="#E58A7B"/>
<path d="M101.85 119.316C98.9952 120.355 95.1889 119.579 96.6821 128.385C98.2633 137.711 95.833 140.778 95.833 140.778C95.833 140.778 106.659 143.084 117.712 140.639C117.712 140.639 114.338 134.739 115.282 130.391C116.49 124.901 115.538 122.873 115.538 122.873C115.538 122.873 105.861 117.852 101.85 119.316Z" fill="#263238"/>
<path d="M113.929 128.678C113.932 129.76 114.241 130.818 114.822 131.731C115.598 132.917 116.513 132.463 116.74 131.204C116.945 130.098 116.791 128.144 115.803 127.383C114.814 126.621 113.943 127.368 113.929 128.678Z" fill="#E58A7B"/>
<path d="M99.3686 120.275C98.5487 117.969 102.458 114.419 110.729 115.883C119.001 117.347 119.359 124.235 119.359 124.235L117.691 122.244L117.764 124.337L109.265 125.97L99.3686 120.275Z" fill="#263238"/>
<path d="M100.071 145.785C100.022 145.451 100.106 145.111 100.304 144.837C100.503 144.564 100.8 144.379 101.133 144.321C103.709 143.897 109.565 143.033 112.508 143.443C114.704 143.75 115.275 145.024 115.37 146.071C115.385 146.254 115.36 146.438 115.298 146.611C115.236 146.784 115.137 146.942 115.009 147.074C114.881 147.206 114.726 147.308 114.554 147.375C114.383 147.442 114.199 147.471 114.016 147.461L101.294 146.89C100.994 146.875 100.708 146.757 100.485 146.556C100.263 146.354 100.116 146.082 100.071 145.785V145.785Z" fill="#B5B9BF"/>
<path opacity="0.6" d="M100.071 145.785C100.022 145.451 100.106 145.111 100.304 144.837C100.503 144.564 100.8 144.379 101.133 144.321C103.709 143.897 109.565 143.033 112.508 143.443C114.704 143.75 115.275 145.024 115.37 146.071C115.385 146.254 115.36 146.438 115.298 146.611C115.236 146.784 115.137 146.942 115.009 147.074C114.881 147.206 114.726 147.308 114.554 147.375C114.383 147.442 114.199 147.471 114.016 147.461L101.294 146.89C100.994 146.875 100.708 146.757 100.485 146.556C100.263 146.354 100.116 146.082 100.071 145.785V145.785Z" fill="#436DAC"/>
<path d="M107.429 273.665L112.15 276.945L120.048 266.236L115.327 262.964L107.429 273.665Z" fill="#E58A7B"/>
<path d="M96.4189 273.453L101.404 276.293L108.394 264.969L103.41 262.129L96.4189 273.453Z" fill="#E58A7B"/>
<path d="M120.04 266.236L115.97 271.755L111.249 268.483L115.319 262.964L120.04 266.236Z" fill="#CF6F64"/>
<path d="M103.402 262.129L108.394 264.977L104.793 270.811L99.8008 267.963L103.402 262.129Z" fill="#CF6F64"/>
<path d="M111.41 181.536C111.41 181.536 129.842 204.762 126.379 226.978C123.59 244.92 107.413 269.215 107.413 269.215L99.8076 265.438C105.168 254.696 109.743 243.579 113.496 232.176C114.653 228.635 114.991 224.878 114.484 221.188C113.977 217.498 112.638 213.971 110.568 210.874C101.228 197.237 86.2656 205.355 96.3306 181.536H111.41Z" fill="#B5B9BF"/>
<path opacity="0.6" d="M111.41 181.536C111.41 181.536 129.842 204.762 126.379 226.978C123.59 244.92 107.413 269.215 107.413 269.215L99.8076 265.438C105.168 254.696 109.743 243.579 113.496 232.176C114.653 228.635 114.991 224.878 114.484 221.188C113.977 217.498 112.638 213.971 110.568 210.874C101.228 197.237 86.2656 205.355 96.3306 181.536H111.41Z" fill="black"/>
<path opacity="0.4" d="M120.451 196.454L117.771 193.79C117.771 194.002 122.961 226.041 124.418 235.045C125.278 232.415 125.936 229.723 126.387 226.993C128.1 216.094 124.521 204.96 120.451 196.454Z" fill="black"/>
<path d="M119.638 181.536C119.638 181.536 141.832 210.728 142.462 228.23C142.981 242.87 118.306 271.235 118.306 271.235L111.132 266.594C111.132 266.594 125.574 246.45 129.213 229.994C127.807 213.685 98.0879 181.536 98.0879 181.536H119.638Z" fill="#B5B9BF"/>
<path opacity="0.6" d="M119.638 181.536C119.638 181.536 141.832 210.728 142.462 228.23C142.981 242.87 118.306 271.235 118.306 271.235L111.132 266.594C111.132 266.594 125.574 246.45 129.213 229.994C127.807 213.685 98.0879 181.536 98.0879 181.536H119.638Z" fill="black"/>
<path d="M92.1804 146.7C89.8087 147.264 87.5322 155.887 87.5322 155.887L96.8067 162.079C96.8067 162.079 99.8957 155.257 98.8123 152.271C97.6924 149.16 95.1597 145.99 92.1804 146.7Z" fill="#436DAC"/>
<path opacity="0.2" d="M93.9967 152.256L93.3525 159.774L96.8003 162.087C97.7522 159.944 98.4571 157.699 98.9011 155.396L93.9967 152.256Z" fill="black"/>
<path d="M122.383 146.868C122.383 146.868 125.121 147.827 119.638 181.529H96.3165C96.7117 172.013 96.7191 166.157 92.1807 146.7C95.4462 146.027 98.7562 145.592 102.085 145.397C105.611 145.144 109.151 145.144 112.677 145.397C117.23 145.814 122.383 146.868 122.383 146.868Z" fill="#436DAC"/>
<path d="M124.755 152.256C125.282 153.72 125.838 155.294 126.424 156.809C127.009 158.324 127.565 159.883 128.158 161.421L129.952 166.018L130.406 167.167L130.64 167.738L130.75 168.023C130.75 168.074 130.75 168.074 130.75 168.067C130.616 167.879 130.441 167.723 130.237 167.613C129.948 167.443 129.621 167.345 129.286 167.328C129.007 167.319 128.73 167.372 128.473 167.482C128.136 167.635 128.136 167.701 128.144 167.694C128.205 167.645 128.259 167.588 128.305 167.525C128.71 166.993 129.061 166.422 129.352 165.82C129.696 165.146 130.025 164.429 130.354 163.704C130.999 162.24 131.591 160.725 132.184 159.195C132.777 157.665 133.341 156.121 133.89 154.562L135.559 149.892L138.377 150.624C137.821 153.962 137.103 157.212 136.24 160.52C135.822 162.167 135.332 163.8 134.776 165.447C134.498 166.274 134.19 167.094 133.839 167.935C133.473 168.849 133.022 169.726 132.492 170.556C132.297 170.835 132.082 171.099 131.848 171.347C131.474 171.75 131.02 172.072 130.515 172.291C130.068 172.483 129.582 172.573 129.095 172.554C128.55 172.534 128.018 172.375 127.551 172.093C126.999 171.749 126.542 171.274 126.219 170.71C126.109 170.519 126.014 170.329 125.948 170.19L125.809 169.912L125.531 169.341L124.974 168.206C124.242 166.684 123.51 165.146 122.873 163.602C122.237 162.057 121.563 160.491 120.934 158.917C120.304 157.343 119.74 155.77 119.206 154.071L124.755 152.256Z" fill="#E58A7B"/>
<path d="M122.382 146.869C125.186 147.535 128.341 155.821 128.341 155.821L120.003 162.914C120.003 162.914 114.609 153.881 115.699 150.902C116.834 147.798 118.722 145.997 122.382 146.869Z" fill="#436DAC"/>
<path d="M136.884 147.271L139.812 144.826L141.847 147.996L140.347 150.638C140.347 150.638 137.96 152.834 135.852 151.714C135.518 150.962 135.437 150.122 135.624 149.32C135.81 148.518 136.252 147.799 136.884 147.271V147.271Z" fill="#E58A7B"/>
<path d="M145.097 144.833L144.877 145.631L140.244 146.407L139.79 144.826L145.097 144.833Z" fill="#E58A7B"/>
<path d="M118.877 271.609L110.518 266.207L112.018 263.601L121.41 269.376L118.877 271.609Z" fill="#B5B9BF"/>
<path d="M104.676 275.913C103.943 275.823 103.238 275.573 102.612 275.181C102.586 275.172 102.564 275.155 102.548 275.133C102.532 275.11 102.523 275.084 102.523 275.056C102.523 275.029 102.532 275.002 102.548 274.98C102.564 274.958 102.586 274.941 102.612 274.932C102.839 274.859 104.808 274.251 105.379 274.72C105.443 274.773 105.492 274.842 105.52 274.921C105.548 274.999 105.555 275.084 105.54 275.166C105.53 275.298 105.486 275.425 105.413 275.535C105.34 275.645 105.24 275.735 105.123 275.796C104.986 275.87 104.832 275.911 104.676 275.913V275.913ZM103.029 275.108C103.944 275.576 104.676 275.744 105.027 275.569C105.104 275.526 105.168 275.465 105.215 275.391C105.261 275.316 105.287 275.232 105.291 275.144C105.291 275.027 105.291 274.976 105.225 274.946C104.918 274.698 103.82 274.888 103.014 275.108H103.029Z" fill="#263238"/>
<path d="M102.663 275.232C102.624 275.231 102.588 275.216 102.561 275.188C102.55 275.168 102.544 275.145 102.544 275.122C102.544 275.099 102.55 275.077 102.561 275.056C102.561 274.99 103.036 273.402 103.783 273.043C103.878 273 103.982 272.977 104.087 272.977C104.192 272.977 104.295 273 104.391 273.043C104.493 273.076 104.582 273.142 104.643 273.231C104.704 273.319 104.734 273.426 104.727 273.534C104.676 274.193 103.336 275.1 102.722 275.254L102.663 275.232ZM104.083 273.234C104.012 273.236 103.942 273.253 103.878 273.285C103.424 273.504 103.051 274.361 102.868 274.881C103.512 274.61 104.398 273.892 104.427 273.49C104.427 273.424 104.427 273.343 104.259 273.27C104.204 273.241 104.145 273.221 104.083 273.212V273.234Z" fill="#263238"/>
<path d="M115.122 279.075C114.295 279.075 113.145 278.014 112.516 277.362C112.5 277.34 112.491 277.313 112.491 277.285C112.491 277.258 112.5 277.231 112.516 277.208C112.53 277.185 112.551 277.166 112.575 277.153C112.6 277.14 112.627 277.134 112.655 277.135C112.948 277.135 115.488 277.516 115.847 278.233C115.885 278.297 115.905 278.371 115.905 278.445C115.905 278.52 115.885 278.593 115.847 278.658C115.793 278.769 115.711 278.866 115.61 278.937C115.509 279.009 115.391 279.054 115.268 279.068L115.122 279.075ZM112.999 277.465C113.921 278.358 114.734 278.855 115.195 278.797C115.276 278.786 115.353 278.756 115.419 278.709C115.485 278.662 115.539 278.599 115.576 278.526C115.592 278.501 115.601 278.472 115.601 278.442C115.601 278.412 115.592 278.383 115.576 278.358C115.385 277.962 114.031 277.626 112.999 277.465Z" fill="#263238"/>
<path d="M113.079 277.428C112.915 277.433 112.751 277.42 112.589 277.391C112.566 277.388 112.545 277.379 112.527 277.365C112.509 277.351 112.495 277.332 112.486 277.311C112.475 277.289 112.47 277.265 112.47 277.241C112.47 277.217 112.475 277.193 112.486 277.172C112.53 277.12 113.518 275.927 114.455 275.847C114.721 275.826 114.983 275.91 115.187 276.081C115.473 276.33 115.458 276.55 115.385 276.689C115.202 277.186 113.936 277.428 113.079 277.428ZM112.889 277.157C113.709 277.201 115.019 276.93 115.187 276.571C115.187 276.571 115.246 276.454 115.056 276.293C114.98 276.227 114.891 276.178 114.796 276.148C114.7 276.117 114.599 276.107 114.499 276.118C113.868 276.294 113.306 276.659 112.889 277.164V277.157Z" fill="#263238"/>
<path d="M102.861 274.441L96.6532 272.685C96.5462 272.652 96.431 272.66 96.3297 272.708C96.2284 272.755 96.1481 272.838 96.1042 272.941L94.0107 277.647C93.9615 277.768 93.9384 277.898 93.9429 278.028C93.9474 278.158 93.9794 278.286 94.0368 278.402C94.0942 278.519 94.1757 278.623 94.2759 278.706C94.3761 278.789 94.4928 278.85 94.6182 278.885C96.8142 279.456 97.8683 279.617 100.599 280.4C102.282 280.868 104.683 281.739 107.004 282.398C109.324 283.057 110.1 280.795 109.2 280.312C105.13 278.16 104.808 276.652 103.695 275.042C103.496 274.75 103.2 274.538 102.861 274.441V274.441Z" fill="#B5B9BF"/>
<path d="M112.684 276.506L107.384 272.846C107.294 272.78 107.183 272.75 107.073 272.761C106.962 272.771 106.859 272.823 106.784 272.904L103.27 276.681C103.184 276.779 103.121 276.894 103.083 277.018C103.045 277.142 103.034 277.273 103.05 277.402C103.067 277.53 103.111 277.654 103.179 277.765C103.247 277.875 103.338 277.97 103.446 278.043C105.312 279.294 106.279 279.8 108.614 281.417C110.078 282.413 112.911 284.623 114.887 286C116.863 287.376 118.335 285.487 117.632 284.741C114.484 281.381 113.796 279.273 113.277 277.362C113.186 277.015 112.976 276.712 112.684 276.506Z" fill="#B5B9BF"/>
<path d="M108.388 269.698L98.835 264.947L99.8232 262.356L110.027 267.363L108.388 269.698Z" fill="#B5B9BF"/>
<path d="M95.9654 180.16L95.1602 182.268C95.0797 182.429 95.27 182.597 95.5409 182.597H119.755C119.968 182.597 120.143 182.495 120.158 182.363L120.363 180.27C120.363 180.131 120.195 180.006 119.968 180.006H96.3461C96.275 179.999 96.2033 180.01 96.137 180.037C96.0708 180.063 96.012 180.106 95.9654 180.16V180.16Z" fill="#B5B9BF"/>
<path opacity="0.4" d="M95.9654 180.16L95.1602 182.268C95.0797 182.429 95.27 182.597 95.5409 182.597H119.755C119.968 182.597 120.143 182.495 120.158 182.363L120.363 180.27C120.363 180.131 120.195 180.006 119.968 180.006H96.3461C96.275 179.999 96.2033 180.01 96.137 180.037C96.0708 180.063 96.012 180.106 95.9654 180.16V180.16Z" fill="white"/>
<path d="M99.7792 182.802H99.1424C99.0179 182.802 98.9228 182.736 98.9301 182.656L99.2302 179.94C99.2302 179.867 99.3473 179.801 99.4718 179.801H100.109C100.233 179.801 100.328 179.867 100.321 179.94L100.021 182.656C100.013 182.736 99.9036 182.802 99.7792 182.802Z" fill="#B5B9BF"/>
<path d="M114.711 182.802H114.082C113.957 182.802 113.862 182.736 113.87 182.656L114.162 179.94C114.162 179.867 114.287 179.801 114.411 179.801H115.041C115.165 179.801 115.268 179.867 115.253 179.94L114.96 182.656C114.924 182.736 114.843 182.802 114.711 182.802Z" fill="#B5B9BF"/>
<g style="mix-blend-mode:multiply">
<path d="M99.2226 306.766C110.053 306.766 118.833 306.131 118.833 305.346C118.833 304.562 110.053 303.926 99.2226 303.926C88.3921 303.926 79.6123 304.562 79.6123 305.346C79.6123 306.131 88.3921 306.766 99.2226 306.766Z" fill="#F5F5F5"/>
</g>
<path d="M111.169 303.341C107.699 302.331 103.849 301.035 101.521 299.681C101.455 299.637 101.382 299.615 101.316 299.578V283.87H108.336C108.869 283.838 109.37 283.604 109.736 283.216C110.102 282.827 110.306 282.314 110.306 281.78C110.306 281.246 110.102 280.732 109.736 280.344C109.37 279.955 108.869 279.721 108.336 279.69H101.353V208.086H97.1366V279.69H90.1606C89.8758 279.673 89.5905 279.715 89.3223 279.812C89.0541 279.909 88.8086 280.061 88.601 280.256C88.3933 280.452 88.2279 280.688 88.1148 280.95C88.0017 281.212 87.9434 281.494 87.9434 281.78C87.9434 282.065 88.0017 282.347 88.1148 282.609C88.2279 282.871 88.3933 283.108 88.601 283.303C88.8086 283.499 89.0541 283.65 89.3223 283.748C89.5905 283.845 89.8758 283.887 90.1606 283.87H97.1366V299.556C97.0707 299.556 97.0048 299.615 96.9389 299.659C94.5746 301.035 90.7535 302.331 87.2839 303.319C87.0495 303.39 86.8482 303.542 86.7165 303.749C86.5848 303.955 86.5314 304.202 86.5659 304.444C86.6004 304.687 86.7206 304.909 86.9046 305.07C87.0887 305.232 87.3245 305.322 87.5693 305.325H110.884C111.118 305.309 111.339 305.213 111.511 305.053C111.683 304.894 111.795 304.68 111.828 304.448C111.862 304.216 111.814 303.979 111.694 303.778C111.574 303.576 111.389 303.422 111.169 303.341Z" fill="#E0E0E0"/>
<path d="M112.245 200.795H86.2146C84.1205 200.795 82.4229 202.493 82.4229 204.587V212.324C82.4229 214.418 84.1205 216.116 86.2146 216.116H112.245C114.339 216.116 116.036 214.418 116.036 212.324V204.587C116.036 202.493 114.339 200.795 112.245 200.795Z" fill="#B5B9BF"/>
<path d="M85.9736 216.123V217.455C85.9736 218.553 87.1668 219.446 88.6308 219.446H109.859C111.323 219.446 112.516 218.553 112.516 217.455V216.123H85.9736Z" fill="#B5B9BF"/>
<path opacity="0.3" d="M85.9736 216.123V217.455C85.9736 218.553 87.1668 219.446 88.6308 219.446H109.859C111.323 219.446 112.516 218.553 112.516 217.455V216.123H85.9736Z" fill="white"/>
</svg>
