<svg width="240" height="238" viewBox="0 0 240 238" fill="none" xmlns="http://www.w3.org/2000/svg">
<path d="M222.753 223.32C222.753 223.387 176.745 223.444 120.004 223.444C63.2637 223.444 17.2461 223.387 17.2461 223.32C17.2461 223.253 63.2445 223.196 120.004 223.196C176.764 223.196 222.753 223.244 222.753 223.32Z" fill="#263238"/>
<path d="M191.419 116.963H119.89C118.198 116.963 116.827 118.322 116.827 120V156.718C116.827 158.395 118.198 159.755 119.89 159.755H191.419C193.11 159.755 194.482 158.395 194.482 156.718V120C194.482 118.322 193.11 116.963 191.419 116.963Z" fill="white"/>
<path d="M191.424 159.755C191.424 159.755 191.63 159.755 192.024 159.684C192.608 159.558 193.142 159.269 193.565 158.851C193.873 158.543 194.11 158.172 194.261 157.765C194.347 157.53 194.405 157.286 194.434 157.037C194.434 156.78 194.434 156.504 194.434 156.218C194.434 155.076 194.434 153.757 194.434 152.277C194.434 146.341 194.41 137.764 194.395 127.163C194.395 125.835 194.395 124.479 194.395 123.094V120.99C194.395 120.28 194.467 119.562 194.174 118.905C193.972 118.407 193.637 117.974 193.205 117.652C192.772 117.33 192.26 117.131 191.722 117.077C191.366 117.053 190.973 117.077 190.598 117.077H185.966H165.893H119.899C119.409 117.076 118.927 117.197 118.496 117.428C118.065 117.659 117.699 117.993 117.432 118.4C117.16 118.803 116.995 119.268 116.952 119.752C116.928 120.228 116.952 120.752 116.952 121.247V138.849C116.952 142.657 116.952 146.402 116.952 150.083V155.528C116.952 155.976 116.952 156.428 116.952 156.866C116.974 157.294 117.089 157.713 117.288 158.094C117.493 158.468 117.776 158.793 118.119 159.049C118.462 159.304 118.856 159.483 119.275 159.574C119.702 159.642 120.135 159.664 120.566 159.641H139.32H156.811L182.136 159.679L189.019 159.703H190.81H191.424H190.81H189.019L182.136 159.726L156.811 159.765H139.32H120.566C120.119 159.788 119.67 159.764 119.227 159.693C118.775 159.596 118.349 159.403 117.979 159.127C117.61 158.851 117.305 158.498 117.086 158.094C116.866 157.685 116.74 157.233 116.717 156.771C116.717 156.295 116.717 155.876 116.717 155.423C116.717 153.629 116.717 151.811 116.717 149.978V138.849C116.717 135.041 116.717 131.162 116.717 127.211V121.261C116.717 120.756 116.717 120.271 116.717 119.747C116.753 119.227 116.917 118.723 117.197 118.281C117.489 117.841 117.884 117.479 118.349 117.224C118.819 116.976 119.343 116.844 119.875 116.839H165.869H185.942H190.574C190.958 116.839 191.323 116.839 191.717 116.839C192.102 116.879 192.476 116.988 192.821 117.163C193.506 117.507 194.043 118.085 194.333 118.79C194.473 119.136 194.548 119.504 194.554 119.876C194.554 120.233 194.554 120.59 194.554 120.947V123.051C194.554 124.434 194.554 125.791 194.554 127.12C194.554 137.721 194.52 146.299 194.51 152.234C194.51 153.715 194.51 155.033 194.51 156.176C194.51 156.461 194.51 156.732 194.51 156.999C194.48 157.253 194.418 157.502 194.328 157.742C194.173 158.155 193.929 158.531 193.613 158.841C193.181 159.263 192.633 159.549 192.038 159.665C191.889 159.692 191.739 159.708 191.587 159.712L191.424 159.755Z" fill="#263238"/>
<path d="M143.885 132.085V132.618H141.639V129.762H143.828V130.295H142.306V130.9H143.65V131.419H142.306V132.085H143.885Z" fill="#263238"/>
<path d="M147.081 129.743V132.599H146.529L145.089 130.852V132.599H144.427V129.743H144.96L146.4 131.49V129.743H147.081Z" fill="#263238"/>
<path d="M148.373 130.286H147.441V129.743H149.971V130.286H149.04V132.618H148.373V130.286Z" fill="#263238"/>
<path d="M152.577 132.085V132.618H150.331V129.762H152.525V130.295H150.998V130.9H152.347V131.419H150.998V132.085H152.577Z" fill="#263238"/>
<path d="M154.963 132.618L154.402 131.819H153.787V132.618H153.12V129.762H154.378C155.151 129.762 155.635 130.157 155.635 130.805C155.641 130.998 155.587 131.189 155.481 131.351C155.375 131.514 155.221 131.64 155.04 131.714L155.688 132.637L154.963 132.618ZM154.335 130.286H153.787V131.285H154.335C154.743 131.285 154.949 131.1 154.949 130.786C154.949 130.471 154.743 130.286 154.335 130.286V130.286Z" fill="#263238"/>
<path d="M157.151 131.181C157.17 130.871 157.28 130.573 157.469 130.324C157.657 130.076 157.914 129.887 158.209 129.783C158.505 129.678 158.824 129.662 159.128 129.736C159.433 129.811 159.708 129.972 159.921 130.2L159.489 130.595C159.399 130.49 159.288 130.405 159.162 130.347C159.036 130.288 158.898 130.258 158.759 130.257C158.525 130.274 158.305 130.378 158.145 130.549C157.984 130.72 157.895 130.945 157.895 131.178C157.895 131.412 157.984 131.637 158.145 131.807C158.305 131.978 158.525 132.083 158.759 132.099C158.899 132.101 159.037 132.072 159.163 132.014C159.29 131.955 159.401 131.869 159.489 131.761L159.921 132.157C159.71 132.387 159.434 132.55 159.13 132.626C158.825 132.701 158.505 132.686 158.209 132.582C157.913 132.478 157.655 132.289 157.467 132.04C157.279 131.79 157.169 131.492 157.151 131.181V131.181Z" fill="#263238"/>
<path d="M160.132 131.181C160.115 130.866 160.193 130.553 160.357 130.283C160.521 130.013 160.763 129.797 161.052 129.665C161.341 129.533 161.663 129.489 161.976 129.54C162.29 129.592 162.581 129.735 162.812 129.952C163.043 130.169 163.203 130.45 163.271 130.758C163.339 131.066 163.312 131.387 163.194 131.68C163.076 131.973 162.872 132.224 162.609 132.4C162.345 132.577 162.034 132.671 161.716 132.671C161.512 132.682 161.308 132.652 161.115 132.583C160.923 132.513 160.748 132.405 160.599 132.266C160.451 132.126 160.333 131.958 160.252 131.771C160.172 131.585 160.131 131.384 160.132 131.181ZM162.623 131.181C162.62 131.004 162.563 130.832 162.461 130.686C162.359 130.541 162.216 130.428 162.05 130.363C161.884 130.298 161.702 130.283 161.528 130.32C161.353 130.357 161.193 130.444 161.068 130.57C160.943 130.697 160.859 130.857 160.825 131.031C160.792 131.205 160.811 131.385 160.88 131.548C160.949 131.712 161.066 131.851 161.214 131.949C161.363 132.047 161.538 132.099 161.716 132.099C161.838 132.102 161.959 132.08 162.071 132.035C162.184 131.989 162.286 131.921 162.371 131.835C162.456 131.749 162.522 131.647 162.566 131.534C162.609 131.421 162.629 131.301 162.623 131.181V131.181Z" fill="#263238"/>
<path d="M163.814 129.743H165.12C165.502 129.743 165.868 129.894 166.138 130.161C166.408 130.429 166.56 130.792 166.56 131.171C166.56 131.55 166.408 131.913 166.138 132.181C165.868 132.449 165.502 132.599 165.12 132.599H163.805L163.814 129.743ZM165.096 132.071C165.334 132.071 165.562 131.977 165.731 131.81C165.899 131.643 165.993 131.417 165.993 131.181C165.993 130.945 165.899 130.718 165.731 130.551C165.562 130.384 165.334 130.291 165.096 130.291H164.486V132.071H165.096Z" fill="#263238"/>
<path d="M169.483 132.085V132.618H167.236V129.762H169.44V130.295H167.904V130.9H169.252V131.419H167.904V132.085H169.483Z" fill="#263238"/>
<path d="M132.874 137.212H125.823C124.776 137.212 123.927 138.053 123.927 139.092V149.978C123.927 151.016 124.776 151.858 125.823 151.858H132.874C133.921 151.858 134.77 151.016 134.77 149.978V139.092C134.77 138.053 133.921 137.212 132.874 137.212Z" fill="#EBEBEB"/>
<path d="M146.414 137.212H139.363C138.316 137.212 137.467 138.053 137.467 139.092V149.978C137.467 151.016 138.316 151.858 139.363 151.858H146.414C147.461 151.858 148.31 151.016 148.31 149.978V139.092C148.31 138.053 147.461 137.212 146.414 137.212Z" fill="#EBEBEB"/>
<path d="M159.955 137.212H152.904C151.857 137.212 151.008 138.053 151.008 139.092V149.978C151.008 151.016 151.857 151.858 152.904 151.858H159.955C161.002 151.858 161.851 151.016 161.851 149.978V139.092C161.851 138.053 161.002 137.212 159.955 137.212Z" fill="#EBEBEB"/>
<path d="M173.491 137.212H166.44C165.393 137.212 164.544 138.053 164.544 139.092V149.978C164.544 151.016 165.393 151.858 166.44 151.858H173.491C174.538 151.858 175.387 151.016 175.387 149.978V139.092C175.387 138.053 174.538 137.212 173.491 137.212Z" fill="#EBEBEB"/>
<path d="M187.032 137.212H179.981C178.934 137.212 178.085 138.053 178.085 139.092V149.978C178.085 151.016 178.934 151.858 179.981 151.858H187.032C188.079 151.858 188.928 151.016 188.928 149.978V139.092C188.928 138.053 188.079 137.212 187.032 137.212Z" fill="#EBEBEB"/>
<path d="M131.712 145.656C131.712 146.698 130.896 147.379 129.792 147.379C128.275 147.379 127.474 146.299 127.474 144.523C127.474 142.591 128.515 141.591 130.037 141.591C130.492 141.571 130.945 141.673 131.347 141.886L131.174 142.219C130.827 142.03 130.433 141.939 130.037 141.957C128.746 141.957 127.896 142.8 127.896 144.461C127.896 144.691 127.912 144.92 127.944 145.147C128.079 144.779 128.332 144.464 128.664 144.252C128.996 144.04 129.389 143.941 129.782 143.971C130.934 143.971 131.712 144.637 131.712 145.656ZM131.29 145.656C131.29 144.842 130.699 144.309 129.725 144.309C129.528 144.287 129.329 144.306 129.14 144.364C128.95 144.422 128.775 144.518 128.625 144.646C128.475 144.775 128.354 144.932 128.268 145.109C128.182 145.286 128.134 145.479 128.126 145.675C128.126 146.346 128.693 147.013 129.773 147.013C129.965 147.033 130.159 147.014 130.342 146.955C130.526 146.896 130.695 146.8 130.838 146.671C130.981 146.543 131.095 146.387 131.173 146.212C131.251 146.037 131.291 145.847 131.29 145.656Z" fill="#B5B9BF"/>
<path d="M145.104 145.765H143.894V147.35H143.481V145.765H140.193V145.465L143.323 141.634H143.803L140.731 145.399H143.501V144.004H143.904V145.399H145.113L145.104 145.765Z" fill="#B5B9BF"/>
<path d="M159.068 148.165C157.397 148.33 155.713 148.33 154.042 148.165C155.713 148 157.397 148 159.068 148.165V148.165Z" fill="#B5B9BF"/>
<path d="M121.757 122.403C122.407 122.403 122.933 121.881 122.933 121.237C122.933 120.593 122.407 120.071 121.757 120.071C121.108 120.071 120.581 120.593 120.581 121.237C120.581 121.881 121.108 122.403 121.757 122.403Z" fill="#263238"/>
<path d="M126.322 121.237C126.322 121.468 126.253 121.693 126.124 121.885C125.994 122.077 125.811 122.226 125.596 122.315C125.381 122.403 125.144 122.426 124.916 122.381C124.688 122.336 124.479 122.225 124.314 122.062C124.15 121.899 124.038 121.691 123.992 121.465C123.947 121.239 123.97 121.004 124.059 120.791C124.148 120.578 124.299 120.396 124.492 120.268C124.686 120.139 124.913 120.071 125.146 120.071C125.458 120.071 125.757 120.194 125.977 120.413C126.198 120.631 126.322 120.928 126.322 121.237V121.237Z" fill="#263238"/>
<path d="M128.472 122.403C129.121 122.403 129.648 121.881 129.648 121.237C129.648 120.593 129.121 120.071 128.472 120.071C127.822 120.071 127.296 120.593 127.296 121.237C127.296 121.881 127.822 122.403 128.472 122.403Z" fill="#263238"/>
<path d="M194.601 124.522C194.601 124.588 177.21 124.645 155.769 124.645C134.327 124.645 116.937 124.588 116.937 124.522C116.937 124.455 134.317 124.398 155.769 124.398C177.22 124.398 194.601 124.45 194.601 124.522Z" fill="#263238"/>
<path d="M180.34 22.9861H94.5931C92.8541 22.9861 91.4443 24.3841 91.4443 26.1086V104.339C91.4443 106.064 92.8541 107.462 94.5931 107.462H180.34C182.079 107.462 183.489 106.064 183.489 104.339V26.1086C183.489 24.3841 182.079 22.9861 180.34 22.9861Z" fill="white"/>
<path d="M180.341 107.462H180.566C180.789 107.443 181.01 107.402 181.224 107.338C181.642 107.211 182.029 106.998 182.36 106.714C182.691 106.429 182.958 106.079 183.144 105.686C183.402 105.096 183.505 104.451 183.441 103.811C183.441 103.102 183.441 102.321 183.441 101.478C183.441 99.7934 183.441 97.8466 183.441 95.657C183.441 86.8986 183.417 74.237 183.398 58.567C183.398 50.7368 183.398 42.1641 183.398 32.9535C183.398 30.656 183.398 28.3188 183.398 25.942C183.362 25.3609 183.157 24.8026 182.808 24.3346C182.459 23.8666 181.98 23.509 181.43 23.305C180.858 23.1256 180.256 23.0609 179.659 23.1146H162.528H94.603C93.8822 23.1187 93.1863 23.3768 92.6398 23.8428C92.0751 24.3157 91.706 24.9783 91.603 25.704C91.5699 26.068 91.5587 26.4335 91.5694 26.7988V56.1061C91.5694 67.373 91.5694 78.2401 91.5694 88.5931C91.5694 93.772 91.5694 98.816 91.5694 103.725C91.5694 104.03 91.5694 104.344 91.5694 104.634C91.597 104.927 91.6665 105.213 91.7758 105.486C91.9978 106.033 92.3767 106.503 92.8654 106.838C93.3491 107.173 93.9219 107.359 94.5118 107.371H103.397H129.225L166.627 107.414H176.793H179.438H180.341H179.438H176.793L166.627 107.438L129.225 107.476H103.397H94.507C93.8728 107.46 93.2572 107.261 92.7361 106.902C92.2149 106.543 91.811 106.041 91.5742 105.458C91.4564 105.165 91.3804 104.857 91.3486 104.544C91.3246 104.22 91.3486 103.925 91.3486 103.616C91.3486 98.7065 91.3486 93.6625 91.3486 88.4836C91.3486 78.1306 91.3486 67.2636 91.3486 55.9966C91.3486 50.3608 91.3486 44.6313 91.3486 38.8083V26.775C91.3354 26.3985 91.3482 26.0216 91.387 25.6469C91.4925 24.8727 91.8821 24.1643 92.4814 23.6572C93.0697 23.147 93.8215 22.8603 94.603 22.848H162.528H179.63C180.254 22.7946 180.882 22.8658 181.478 23.0574C182.067 23.2759 182.579 23.6588 182.953 24.1596C183.327 24.6605 183.546 25.2581 183.585 25.8801C183.585 28.2601 183.585 30.602 183.585 32.9059C183.585 42.1165 183.585 50.6892 183.585 58.5194C183.585 74.1798 183.557 86.851 183.547 95.6094C183.547 97.799 183.547 99.7458 183.547 101.431C183.547 102.273 183.547 103.054 183.547 103.763C183.608 104.414 183.499 105.07 183.23 105.667C182.989 106.168 182.618 106.595 182.155 106.906C181.692 107.216 181.153 107.398 180.595 107.433L180.341 107.462Z" fill="#263238"/>
<path d="M98.4001 28.8408C98.4001 29.1536 98.3065 29.4593 98.1312 29.7193C97.9559 29.9793 97.7067 30.1818 97.4152 30.3013C97.1237 30.4208 96.8031 30.4518 96.4938 30.3904C96.1846 30.3291 95.9006 30.1781 95.6779 29.9566C95.4553 29.7351 95.3039 29.4531 95.2429 29.1462C95.182 28.8393 95.2142 28.5214 95.3356 28.2328C95.4569 27.9441 95.6619 27.6976 95.9246 27.5245C96.1873 27.3514 96.4959 27.2596 96.8113 27.2605C97.0203 27.2605 97.2273 27.3014 97.4204 27.3809C97.6135 27.4604 97.7888 27.5768 97.9364 27.7237C98.084 27.8705 98.201 28.0447 98.2805 28.2364C98.3601 28.4281 98.4007 28.6335 98.4001 28.8408Z" fill="#263238"/>
<path d="M101.448 30.4165C102.326 30.4165 103.037 29.7111 103.037 28.8409C103.037 27.9708 102.326 27.2654 101.448 27.2654C100.571 27.2654 99.8594 27.9708 99.8594 28.8409C99.8594 29.7111 100.571 30.4165 101.448 30.4165Z" fill="#263238"/>
<path d="M106.094 30.4165C106.971 30.4165 107.682 29.7111 107.682 28.8409C107.682 27.9708 106.971 27.2654 106.094 27.2654C105.216 27.2654 104.505 27.9708 104.505 28.8409C104.505 29.7111 105.216 30.4165 106.094 30.4165Z" fill="#263238"/>
<path d="M183.489 33.3201C183.489 33.3915 162.883 33.4438 137.467 33.4438C112.051 33.4438 91.4443 33.3915 91.4443 33.3201C91.4443 33.2487 112.046 33.1963 137.467 33.1963C162.888 33.1963 183.489 33.2487 183.489 33.3201Z" fill="#263238"/>
<path d="M150.47 65.1406C150.47 65.1406 150.504 65.0883 150.58 64.9931L150.643 64.9121L150.705 64.8027C150.758 64.7141 150.805 64.6218 150.844 64.5266C150.844 64.4742 150.892 64.4171 150.912 64.3552L150.969 64.1553C150.99 64.0819 151.006 64.0072 151.017 63.9316C151.017 63.8507 151.046 63.7697 151.051 63.6841C151.082 63.2882 151.063 62.8899 150.993 62.4988C150.791 61.4284 150.422 60.3957 149.899 59.4382C149.224 58.1601 148.436 56.9446 147.542 55.8063C146.467 54.4218 145.294 53.1144 144.033 51.8936C142.59 50.4884 141.048 49.1857 139.42 47.9951C138.561 47.3668 137.654 46.7575 136.699 46.1863C135.725 45.5963 134.713 45.07 133.67 44.6108C132.598 44.1254 131.469 43.7737 130.31 43.5636C129.717 43.4589 129.112 43.4444 128.515 43.5207C128.215 43.5629 127.923 43.6462 127.646 43.7682C127.375 43.9003 127.129 44.0793 126.921 44.2966C126.723 44.5246 126.57 44.7879 126.47 45.0725C126.38 45.3595 126.33 45.6574 126.321 45.9578C126.313 46.5553 126.396 47.1506 126.566 47.7238C126.91 48.8452 127.394 49.9197 128.006 50.9225C128.583 51.898 129.224 52.8346 129.926 53.7262C130.608 54.602 131.323 55.4302 132.048 56.2061C133.426 57.6747 134.908 59.0442 136.483 60.3045C137.849 61.4091 139.293 62.416 140.803 63.3176C142.045 64.0667 143.353 64.7039 144.71 65.2216C145.73 65.6252 146.807 65.8724 147.902 65.9546C148.301 65.9741 148.7 65.9469 149.092 65.8737C149.179 65.8737 149.256 65.8308 149.332 65.8118C149.407 65.7923 149.481 65.7684 149.553 65.7404L149.745 65.6595L149.913 65.5738C150.005 65.5245 150.091 65.4672 150.172 65.4024L150.273 65.331L150.35 65.2596C150.436 65.174 150.484 65.1359 150.484 65.1359L150.355 65.2644L150.278 65.3358L150.182 65.412C150.1 65.4777 150.012 65.5351 149.918 65.5833L149.76 65.688L149.563 65.769C149.493 65.7984 149.421 65.8222 149.347 65.8404C149.267 65.8676 149.185 65.8898 149.102 65.907C148.708 65.9871 148.304 66.0159 147.902 65.9927C146.804 65.9187 145.724 65.6762 144.7 65.2739C143.338 64.7568 142.026 64.1196 140.779 63.3699C139.269 62.4681 137.825 61.4612 136.459 60.3568C134.88 59.0982 133.395 57.7285 132.014 56.2585C131.289 55.4826 130.574 54.6544 129.888 53.7785C129.188 52.8824 128.546 51.9428 127.968 50.9654C127.355 49.9579 126.871 48.8786 126.528 47.7524C126.353 47.1719 126.269 46.5683 126.278 45.9626C126.288 45.6572 126.34 45.3546 126.432 45.063C126.541 44.7679 126.703 44.4953 126.912 44.2585C127.124 44.0323 127.379 43.8482 127.66 43.7159C127.943 43.5907 128.242 43.5043 128.548 43.4588C129.154 43.3825 129.767 43.3969 130.368 43.5017C131.535 43.7136 132.672 44.0685 133.752 44.5584C134.797 45.0182 135.81 45.5462 136.785 46.1387C137.745 46.7099 138.652 47.3192 139.512 47.9523C141.142 49.145 142.684 50.4526 144.124 51.865C145.388 53.0879 146.562 54.3986 147.638 55.7872C148.529 56.9287 149.315 58.1474 149.985 59.4286C150.507 60.3914 150.875 61.4288 151.075 62.5036C151.142 62.8982 151.158 63.2997 151.123 63.6984C151.115 63.78 151.103 63.8611 151.084 63.9411C151.077 64.0172 151.061 64.0923 151.036 64.1648L150.979 64.3695C150.959 64.4281 150.935 64.4854 150.907 64.5409C150.871 64.6385 150.822 64.7313 150.763 64.817C150.746 64.8555 150.725 64.8922 150.7 64.9264L150.638 65.0074L150.47 65.1406Z" fill="#B5B9BF"/>
<path d="M154.824 54.7068V54.5259V54.426C154.824 54.3879 154.824 54.3498 154.8 54.3022C154.783 54.1997 154.756 54.0992 154.718 54.0023C154.718 53.95 154.68 53.8881 154.656 53.831L154.56 53.6406C154.528 53.5715 154.49 53.5061 154.444 53.4454C154.403 53.3739 154.356 53.3055 154.305 53.2407C154.066 52.9225 153.785 52.6376 153.47 52.3934C152.597 51.7287 151.625 51.202 150.59 50.8322C149.23 50.3221 147.825 49.935 146.395 49.6755C144.653 49.3512 142.89 49.1508 141.12 49.0757C139.098 48.978 137.072 49.021 135.057 49.2042C133.996 49.3042 132.912 49.4518 131.812 49.6564C130.689 49.8573 129.581 50.1324 128.496 50.4799C127.367 50.8189 126.286 51.2987 125.28 51.9079C124.767 52.22 124.305 52.6085 123.912 53.0598C123.717 53.2887 123.555 53.5435 123.432 53.8167C123.313 54.0942 123.248 54.3912 123.24 54.6925C123.249 54.9932 123.312 55.2898 123.427 55.5684C123.552 55.8406 123.714 56.0951 123.907 56.3252C124.303 56.7769 124.766 57.1668 125.28 57.4819C126.288 58.0883 127.368 58.568 128.496 58.9099C129.583 59.253 130.69 59.528 131.812 59.7334C132.912 59.938 133.996 60.0808 135.057 60.1808C137.072 60.3678 139.098 60.4123 141.12 60.3141C142.891 60.2439 144.655 60.053 146.4 59.7429C147.83 59.4834 149.234 59.0962 150.595 58.5862C151.629 58.2125 152.599 57.6861 153.475 57.0249C153.789 56.7796 154.07 56.4947 154.31 56.1776C154.361 56.1112 154.408 56.0412 154.449 55.9682C154.495 55.9075 154.533 55.8421 154.564 55.773L154.66 55.5874C154.684 55.5255 154.704 55.4684 154.723 55.4113C154.761 55.3146 154.788 55.214 154.804 55.1114C154.804 55.0686 154.804 55.0305 154.828 54.9924V54.8924V54.7068C154.828 54.7068 154.828 54.7687 154.828 54.8924V54.9924C154.828 55.0305 154.828 55.0686 154.828 55.1162C154.814 55.2185 154.788 55.3191 154.752 55.416C154.752 55.4732 154.713 55.5303 154.689 55.5922L154.598 55.7826C154.564 55.8516 154.526 55.9184 154.483 55.9825C154.44 56.0532 154.394 56.1215 154.344 56.1872C154.105 56.5085 153.824 56.7966 153.508 57.044C152.637 57.7142 151.665 58.2458 150.628 58.6195C149.267 59.1353 147.861 59.5272 146.428 59.7905C144.685 60.1158 142.921 60.3194 141.148 60.3998C139.126 60.5014 137.098 60.46 135.081 60.276C134.016 60.176 132.926 60.0332 131.827 59.8286C130.702 59.6227 129.591 59.3476 128.5 59.0051C127.367 58.6652 126.282 58.1854 125.27 57.5771C124.75 57.2606 124.283 56.8673 123.883 56.4109C123.688 56.175 123.527 55.914 123.403 55.635C123.273 55.3508 123.206 55.0425 123.206 54.7306C123.206 54.4187 123.273 54.1104 123.403 53.8262C123.528 53.5482 123.69 53.2874 123.883 53.0503C124.287 52.5945 124.758 52.2013 125.28 51.8841C126.294 51.2766 127.381 50.7969 128.515 50.4561C129.602 50.1091 130.712 49.834 131.836 49.6326C132.94 49.428 134.025 49.2852 135.091 49.1852C137.094 48.9919 139.109 48.9394 141.12 49.0281C142.892 49.1076 144.657 49.3128 146.4 49.6422C147.833 49.903 149.238 50.2934 150.6 50.8084C151.636 51.1821 152.608 51.7136 153.48 52.3839C153.794 52.6324 154.075 52.9204 154.315 53.2407C154.366 53.3072 154.413 53.3772 154.454 53.4502C154.498 53.5136 154.536 53.5805 154.569 53.6501L154.66 53.8357C154.684 53.8976 154.704 53.9595 154.723 54.0118C154.759 54.1104 154.785 54.2125 154.8 54.3165C154.8 54.3593 154.8 54.4022 154.8 54.4355V54.5402C154.824 54.6449 154.824 54.7068 154.824 54.7068Z" fill="#B5B9BF"/>
<path d="M149.055 41.726L148.896 41.6261L148.81 41.569C148.774 41.5488 148.738 41.5312 148.7 41.5166C148.608 41.467 148.511 41.4272 148.412 41.3976C148.354 41.3976 148.296 41.3548 148.234 41.3405L148.028 41.2976C147.953 41.2815 147.878 41.2704 147.802 41.2643C147.719 41.2595 147.635 41.2595 147.552 41.2643C147.151 41.2593 146.752 41.3041 146.362 41.3976C145.3 41.6773 144.287 42.1154 143.357 42.6971C142.117 43.4496 140.949 44.3132 139.868 45.277C138.548 46.4363 137.313 47.6865 136.171 49.0184C134.856 50.542 133.651 52.1565 132.567 53.8498C132 54.7399 131.443 55.6919 130.935 56.6439C130.407 57.6472 129.947 58.684 129.557 59.7474C129.144 60.8443 128.869 61.9873 128.736 63.1508C128.672 63.7449 128.7 64.3452 128.818 64.931C128.884 65.2244 128.989 65.5077 129.13 65.7736C129.278 66.0361 129.476 66.2686 129.711 66.459C129.955 66.6354 130.23 66.766 130.522 66.8446C130.816 66.9151 131.118 66.9455 131.419 66.935C132.022 66.9017 132.616 66.7782 133.181 66.5685C134.286 66.1531 135.334 65.603 136.301 64.931C137.242 64.2917 138.14 63.5921 138.989 62.8366C139.824 62.0988 140.607 61.3372 141.336 60.5661C142.717 59.1003 143.992 57.5399 145.152 55.8966C146.169 54.4692 147.084 52.9725 147.888 51.4174C148.559 50.1383 149.112 48.8017 149.54 47.4238C149.875 46.3851 150.049 45.3015 150.053 44.2108C150.052 43.815 149.997 43.4211 149.89 43.0398C149.89 42.9541 149.837 42.878 149.813 42.8018C149.789 42.7256 149.76 42.659 149.727 42.5924L149.635 42.4067C149.602 42.3496 149.564 42.2972 149.535 42.2496C149.48 42.1603 149.416 42.0773 149.343 42.0021L149.266 41.9069L149.189 41.8403L149.055 41.7165L149.194 41.8355L149.271 41.9022C149.3 41.9301 149.328 41.9604 149.352 41.9926C149.425 42.0684 149.489 42.1514 149.544 42.2401C149.578 42.2925 149.616 42.3401 149.65 42.3972L149.741 42.5876C149.778 42.6544 149.809 42.7245 149.832 42.797C149.856 42.8732 149.89 42.9494 149.909 43.035C150.02 43.4174 150.078 43.8129 150.082 44.2108C150.084 45.3044 149.914 46.3916 149.578 47.4333C149.152 48.815 148.603 50.1563 147.936 51.4412C147.132 52.9994 146.218 54.4994 145.2 55.9299C144.043 57.5784 142.768 59.1421 141.384 60.609C140.655 61.3848 139.872 62.1512 139.032 62.889C138.181 63.6457 137.282 64.3469 136.339 64.9882C135.368 65.6652 134.315 66.2186 133.205 66.6351C132.634 66.8468 132.033 66.972 131.424 67.0064C131.114 67.0167 130.805 66.9863 130.503 66.916C130.202 66.8319 129.919 66.6949 129.667 66.5114C129.425 66.3157 129.221 66.0768 129.067 65.8069C128.922 65.5351 128.814 65.2454 128.746 64.9453C128.629 64.3528 128.604 63.7462 128.669 63.146C128.799 61.9755 129.076 60.8257 129.495 59.7236C129.885 58.6586 130.345 57.6203 130.872 56.6153C131.386 55.6252 131.938 54.6828 132.509 53.7879C133.6 52.0953 134.809 50.4809 136.128 48.9565C137.272 47.6249 138.51 46.3761 139.834 45.2199C140.921 44.2571 142.094 43.3936 143.338 42.64C144.272 42.0608 145.29 41.6274 146.357 41.3548C146.748 41.2589 147.15 41.2141 147.552 41.2215C147.639 41.2215 147.72 41.2215 147.802 41.2215C147.879 41.2272 147.956 41.2384 148.032 41.2548L148.239 41.2976L148.416 41.3595C148.516 41.3905 148.613 41.432 148.704 41.4833C148.742 41.4979 148.779 41.5154 148.815 41.5356L148.901 41.5975L149.055 41.726Z" fill="#B5B9BF"/>
<path d="M123.048 61.1756C123.129 61.2569 123.185 61.3604 123.207 61.473C123.229 61.5855 123.218 61.7021 123.173 61.8081C123.129 61.914 123.054 62.0045 122.958 62.0682C122.861 62.1319 122.748 62.1658 122.632 62.1658C122.517 62.1658 122.404 62.1319 122.307 62.0682C122.211 62.0045 122.136 61.914 122.092 61.8081C122.047 61.7021 122.036 61.5855 122.058 61.473C122.08 61.3604 122.136 61.2569 122.217 61.1756C122.272 61.1213 122.336 61.0783 122.408 61.0489C122.479 61.0195 122.555 61.0044 122.632 61.0044C122.71 61.0044 122.786 61.0195 122.857 61.0489C122.929 61.0783 122.993 61.1213 123.048 61.1756V61.1756Z" fill="#B5B9BF"/>
<path d="M156.163 43.1398C156.164 43.2558 156.13 43.3695 156.066 43.4664C156.002 43.5633 155.91 43.6391 155.802 43.6841C155.694 43.7292 155.575 43.7414 155.461 43.7194C155.346 43.6973 155.24 43.642 155.157 43.5603C155.074 43.4786 155.017 43.3743 154.994 43.2606C154.971 43.1469 154.982 43.0289 155.027 42.9216C155.071 42.8144 155.147 42.7227 155.244 42.6581C155.342 42.5936 155.456 42.5591 155.573 42.5591C155.65 42.5585 155.727 42.573 155.798 42.6019C155.87 42.6308 155.935 42.6735 155.99 42.7275C156.045 42.7815 156.088 42.8457 156.118 42.9165C156.148 42.9873 156.163 43.0632 156.163 43.1398V43.1398Z" fill="#B5B9BF"/>
<path d="M126.754 63.089C126.754 63.1182 126.745 63.1467 126.729 63.171C126.712 63.1952 126.689 63.2141 126.662 63.2253C126.635 63.2365 126.605 63.2394 126.576 63.2337C126.547 63.228 126.52 63.214 126.5 63.1933C126.479 63.1727 126.465 63.1464 126.459 63.1178C126.453 63.0891 126.456 63.0595 126.467 63.0325C126.479 63.0055 126.498 62.9825 126.522 62.9663C126.547 62.9501 126.575 62.9414 126.605 62.9414C126.644 62.9414 126.682 62.957 126.71 62.9846C126.738 63.0123 126.754 63.0498 126.754 63.089Z" fill="#B5B9BF"/>
<path d="M129.936 46.7813C129.936 46.8105 129.928 46.8391 129.911 46.8633C129.895 46.8876 129.872 46.9065 129.844 46.9177C129.817 46.9288 129.787 46.9318 129.758 46.9261C129.73 46.9204 129.703 46.9063 129.682 46.8857C129.661 46.865 129.647 46.8388 129.642 46.8101C129.636 46.7815 129.639 46.7518 129.65 46.7249C129.661 46.6979 129.68 46.6749 129.705 46.6587C129.729 46.6424 129.758 46.6338 129.787 46.6338C129.827 46.6338 129.865 46.6493 129.893 46.677C129.921 46.7047 129.936 46.7422 129.936 46.7813Z" fill="#B5B9BF"/>
<path d="M153.211 54.7066C153.211 54.7458 153.195 54.7833 153.167 54.811C153.139 54.8387 153.101 54.8542 153.062 54.8542C153.022 54.8542 152.985 54.8387 152.957 54.811C152.929 54.7833 152.913 54.7458 152.913 54.7066C152.913 54.6675 152.929 54.63 152.957 54.6023C152.985 54.5746 153.022 54.5591 153.062 54.5591C153.101 54.5591 153.139 54.5746 153.167 54.6023C153.195 54.63 153.211 54.6675 153.211 54.7066V54.7066Z" fill="#B5B9BF"/>
<path d="M155.284 47.8143C155.284 47.8534 155.268 47.891 155.24 47.9186C155.212 47.9463 155.175 47.9619 155.135 47.9619C155.096 47.9619 155.058 47.9463 155.03 47.9186C155.002 47.891 154.986 47.8534 154.986 47.8143C154.986 47.7752 155.002 47.7376 155.03 47.71C155.058 47.6823 155.096 47.6667 155.135 47.6667C155.175 47.6667 155.212 47.6823 155.24 47.71C155.268 47.7376 155.284 47.7752 155.284 47.8143V47.8143Z" fill="#B5B9BF"/>
<path d="M145.234 57.9577H143.39V48.0045C143.39 46.8772 142.939 45.796 142.135 44.9989C141.331 44.2017 140.241 43.7539 139.104 43.7539C137.967 43.7539 136.877 44.2017 136.073 44.9989C135.269 45.796 134.818 46.8772 134.818 48.0045V57.9577H132.96V48.0045C132.96 46.3924 133.606 44.8463 134.755 43.7064C135.905 42.5664 137.464 41.926 139.09 41.926C140.715 41.926 142.274 42.5664 143.424 43.7064C144.573 44.8463 145.219 46.3924 145.219 48.0045L145.234 57.9577Z" fill="#B5B9BF"/>
<g opacity="0.3">
<path opacity="0.3" d="M145.234 57.9577H143.39V48.0045C143.39 46.8772 142.939 45.796 142.135 44.9989C141.331 44.2017 140.241 43.7539 139.104 43.7539C137.967 43.7539 136.877 44.2017 136.073 44.9989C135.269 45.796 134.818 46.8772 134.818 48.0045V57.9577H132.96V48.0045C132.96 46.3924 133.606 44.8463 134.755 43.7064C135.905 42.5664 137.464 41.926 139.09 41.926C140.715 41.926 142.274 42.5664 143.424 43.7064C144.573 44.8463 145.219 46.3924 145.219 48.0045L145.234 57.9577Z" fill="black"/>
</g>
<path d="M146.284 53.531H131.923C131.326 53.531 130.843 54.0105 130.843 54.602V62.9701C130.843 63.5616 131.326 64.0411 131.923 64.0411H146.284C146.881 64.0411 147.364 63.5616 147.364 62.9701V54.602C147.364 54.0105 146.881 53.531 146.284 53.531Z" fill="#B5B9BF"/>
<g opacity="0.3">
<path opacity="0.3" d="M140.486 57.4198C140.488 57.1643 140.418 56.9132 140.284 56.695C140.15 56.4769 139.957 56.3003 139.727 56.1852C139.496 56.0701 139.238 56.0211 138.982 56.0437C138.725 56.0663 138.48 56.1597 138.274 56.3132C138.068 56.4668 137.909 56.6744 137.816 56.9126C137.722 57.1508 137.698 57.4102 137.745 57.6614C137.793 57.9127 137.91 58.1457 138.084 58.3344C138.258 58.523 138.482 58.6596 138.73 58.7288V60.7756H139.478V58.7288C139.768 58.6498 140.023 58.479 140.205 58.2427C140.387 58.0063 140.486 57.7173 140.486 57.4198V57.4198Z" fill="black"/>
</g>
<path d="M131.726 63.0463C131.688 63.0463 131.654 61.2946 131.654 59.1336C131.654 56.9725 131.688 55.2161 131.726 55.2161C131.764 55.2161 131.793 56.9677 131.793 59.1336C131.793 61.2994 131.76 63.0463 131.726 63.0463Z" fill="#FAFAFA"/>
<path d="M138.024 59.1716C138.024 59.1716 137.956 59.1716 137.86 59.0812C137.724 58.9808 137.605 58.8604 137.505 58.7242C137.33 58.4998 137.208 58.2395 137.148 57.9623C137.087 57.6851 137.09 57.398 137.156 57.122C137.222 56.846 137.349 56.588 137.528 56.367C137.707 56.146 137.934 55.9674 138.192 55.8444C138.342 55.7645 138.504 55.7083 138.672 55.6778C138.734 55.6663 138.797 55.6663 138.859 55.6778C138.647 55.7492 138.44 55.8351 138.24 55.9348C138.005 56.063 137.801 56.2383 137.639 56.4496C137.477 56.6608 137.361 56.9033 137.299 57.1614C137.237 57.4196 137.23 57.6877 137.279 57.9487C137.328 58.2096 137.431 58.4575 137.582 58.6766C137.716 58.8531 137.863 59.0187 138.024 59.1716V59.1716Z" fill="#FAFAFA"/>
<path d="M163.632 73.0518H112.767C110.296 73.0518 108.293 75.038 108.293 77.4881V78.0307C108.293 80.4808 110.296 82.467 112.767 82.467H163.632C166.103 82.467 168.106 80.4808 168.106 78.0307V77.4881C168.106 75.038 166.103 73.0518 163.632 73.0518Z" fill="#F5F5F5"/>
<path d="M164.069 85.9607H113.203C110.732 85.9607 108.729 87.9469 108.729 90.397V90.9397C108.729 93.3898 110.732 95.376 113.203 95.376H164.069C166.539 95.376 168.542 93.3898 168.542 90.9397V90.397C168.542 87.9469 166.539 85.9607 164.069 85.9607Z" fill="#F5F5F5"/>
<path d="M117.744 77.6831V76.3218H118.315V77.6641C118.315 78.1401 118.517 78.3162 118.863 78.3162C119.208 78.3162 119.41 78.1258 119.41 77.6641V76.3218H119.971V77.6831C119.971 77.976 119.854 78.2569 119.645 78.464C119.436 78.6711 119.153 78.7875 118.858 78.7875C118.562 78.7875 118.279 78.6711 118.07 78.464C117.861 78.2569 117.744 77.976 117.744 77.6831V77.6831Z" fill="#263238"/>
<path d="M120.312 78.5828L120.489 78.1925C120.688 78.31 120.915 78.3724 121.147 78.3734C121.401 78.3734 121.492 78.3067 121.492 78.202C121.492 77.8974 120.355 78.202 120.355 77.4642C120.355 77.1072 120.676 76.8549 121.228 76.8549C121.48 76.8509 121.729 76.9081 121.953 77.0215L121.771 77.4071C121.606 77.3137 121.418 77.2661 121.228 77.2691C120.984 77.2691 120.878 77.3452 120.878 77.4404C120.878 77.7593 122.016 77.4404 122.016 78.1877C122.016 78.5352 121.694 78.7827 121.128 78.7827C120.842 78.789 120.561 78.72 120.312 78.5828V78.5828Z" fill="#263238"/>
<path d="M124.195 77.9734H122.755C122.785 78.0905 122.856 78.193 122.956 78.2621C123.055 78.3312 123.177 78.3623 123.298 78.3495C123.386 78.3534 123.474 78.3393 123.557 78.3082C123.639 78.2771 123.714 78.2296 123.778 78.1686L124.071 78.4828C123.97 78.5854 123.849 78.6653 123.715 78.7171C123.581 78.7689 123.437 78.7912 123.293 78.7826C123.157 78.7996 123.019 78.7876 122.889 78.7474C122.758 78.7072 122.637 78.6398 122.535 78.5496C122.433 78.4595 122.351 78.3487 122.296 78.2247C122.24 78.1007 122.212 77.9663 122.213 77.8306C122.213 77.7015 122.239 77.5737 122.29 77.455C122.342 77.3363 122.417 77.2291 122.511 77.1401C122.605 77.051 122.717 76.9819 122.839 76.937C122.961 76.892 123.091 76.8722 123.221 76.8786C123.349 76.8755 123.476 76.8977 123.596 76.9442C123.715 76.9906 123.824 77.0602 123.915 77.1489C124.007 77.2376 124.08 77.3437 124.13 77.4607C124.179 77.5778 124.205 77.7036 124.205 77.8306C124.205 77.8687 124.195 77.9258 124.195 77.9734ZM122.755 77.6545H123.682C123.654 77.5537 123.594 77.4647 123.51 77.4012C123.426 77.3377 123.324 77.3033 123.219 77.3033C123.113 77.3033 123.011 77.3377 122.927 77.4012C122.843 77.4647 122.783 77.5537 122.755 77.6545V77.6545Z" fill="#263238"/>
<path d="M125.759 76.855V77.3596H125.635C125.567 77.3592 125.501 77.3729 125.439 77.3998C125.378 77.4266 125.322 77.466 125.277 77.5154C125.232 77.5647 125.197 77.623 125.176 77.6864C125.155 77.7497 125.148 77.8168 125.155 77.8832V78.7638H124.607V76.8931H125.131V77.112C125.208 77.0233 125.305 76.9538 125.414 76.9092C125.523 76.8645 125.642 76.846 125.759 76.855V76.855Z" fill="#263238"/>
<path d="M127.996 77.6831V78.7541H127.449V77.7688C127.449 77.4641 127.31 77.3261 127.065 77.3261C126.82 77.3261 126.614 77.4879 126.614 77.8306V78.7541H126.066V76.8834H126.59V77.1119C126.671 77.03 126.768 76.9658 126.875 76.9231C126.983 76.8805 127.098 76.8605 127.214 76.8644C127.322 76.8573 127.431 76.874 127.532 76.9133C127.633 76.9526 127.724 77.0134 127.799 77.0916C127.873 77.1698 127.93 77.2633 127.964 77.3655C127.998 77.4677 128.009 77.5762 127.996 77.6831V77.6831Z" fill="#263238"/>
<path d="M130.161 77.688V78.7542H129.648V78.54C129.584 78.6311 129.498 78.7034 129.396 78.7495C129.295 78.7956 129.183 78.8137 129.072 78.8018C128.63 78.8018 128.366 78.5591 128.366 78.2354C128.366 77.9117 128.601 77.6737 129.177 77.6737H129.6C129.6 77.4452 129.461 77.3072 129.163 77.3072C128.968 77.3065 128.778 77.3683 128.621 77.4833L128.424 77.1025C128.667 76.9469 128.951 76.8673 129.24 76.874C129.825 76.855 130.161 77.112 130.161 77.688ZM129.614 78.164V77.9736H129.24C128.981 77.9736 128.904 78.0688 128.904 78.1925C128.904 78.3163 129.019 78.421 129.211 78.421C129.295 78.4235 129.377 78.4001 129.447 78.3541C129.516 78.308 129.57 78.2416 129.6 78.164H129.614Z" fill="#263238"/>
<path d="M133.842 77.6831V78.7541H133.295V77.7688C133.295 77.4642 133.161 77.3261 132.94 77.3261C132.719 77.3261 132.522 77.4832 132.522 77.8021V78.7541H131.999V77.7688C131.999 77.4642 131.87 77.3261 131.639 77.3261C131.409 77.3261 131.226 77.4832 131.226 77.8021V78.7541H130.655V76.8835H131.178V77.1119C131.253 77.0304 131.344 76.966 131.446 76.9233C131.548 76.8805 131.658 76.8604 131.769 76.8644C131.891 76.8589 132.012 76.8844 132.122 76.9385C132.231 76.9927 132.324 77.0737 132.393 77.1738C132.474 77.0731 132.578 76.9927 132.697 76.939C132.815 76.8853 132.944 76.8598 133.074 76.8644C133.182 76.8578 133.29 76.875 133.39 76.9146C133.49 76.9543 133.58 77.0155 133.654 77.0938C133.727 77.1721 133.782 77.2655 133.815 77.3674C133.847 77.4693 133.857 77.5772 133.842 77.6831Z" fill="#263238"/>
<path d="M136.195 77.9734H134.755C134.78 78.0922 134.849 78.1973 134.949 78.2671C135.049 78.337 135.172 78.3665 135.293 78.3495C135.381 78.3531 135.469 78.3389 135.552 78.3078C135.634 78.2767 135.709 78.2293 135.773 78.1686L136.061 78.4827C135.961 78.5859 135.84 78.6662 135.705 78.718C135.571 78.7698 135.427 78.7919 135.283 78.7826C135.148 78.7989 135.011 78.7863 134.88 78.7458C134.75 78.7053 134.63 78.6377 134.529 78.5476C134.427 78.4576 134.346 78.347 134.29 78.2234C134.235 78.0998 134.207 77.9659 134.208 77.8306C134.208 77.7015 134.234 77.5737 134.285 77.455C134.337 77.3363 134.412 77.2291 134.506 77.1401C134.6 77.051 134.712 76.9819 134.834 76.937C134.956 76.892 135.086 76.8722 135.216 76.8786C135.471 76.8786 135.715 76.9789 135.895 77.1575C136.075 77.336 136.176 77.5781 136.176 77.8306C136.205 77.8687 136.2 77.9258 136.195 77.9734ZM134.755 77.6545H135.686C135.671 77.5418 135.613 77.4391 135.523 77.3675C135.434 77.2959 135.321 77.2606 135.206 77.269C135.097 77.267 134.991 77.3053 134.908 77.3766C134.826 77.4478 134.773 77.5468 134.76 77.6545H134.755Z" fill="#263238"/>
<path d="M139.815 77.8022C139.815 78.4257 139.527 78.7827 139.095 78.7827C138.992 78.7895 138.89 78.7635 138.804 78.7087C138.718 78.6539 138.651 78.573 138.615 78.4781C138.551 78.5771 138.462 78.6575 138.356 78.7111C138.251 78.7646 138.133 78.7893 138.015 78.7827C137.795 78.76 137.592 78.6575 137.444 78.4949C137.296 78.3322 137.214 78.1211 137.214 77.9021C137.214 77.6832 137.296 77.472 137.444 77.3094C137.592 77.1467 137.795 77.0442 138.015 77.0215C138.116 77.0168 138.218 77.0354 138.311 77.0759C138.404 77.1163 138.487 77.1775 138.552 77.2548V77.0501H139.032V78.1734C139.032 78.34 139.104 78.3972 139.2 78.3972C139.296 78.3972 139.459 78.2115 139.459 77.8117C139.462 77.6456 139.428 77.4809 139.362 77.3283C139.296 77.1758 139.198 77.0387 139.075 76.926C138.952 76.8134 138.806 76.7277 138.647 76.6744C138.489 76.6212 138.321 76.6016 138.154 76.6169C137.816 76.6169 137.493 76.7498 137.254 76.9864C137.016 77.2229 136.882 77.5438 136.882 77.8783C136.882 78.2129 137.016 78.5337 137.254 78.7703C137.493 79.0068 137.816 79.1397 138.154 79.1397C138.393 79.1394 138.629 79.0874 138.845 78.9874L138.955 79.3063C138.704 79.4203 138.43 79.4772 138.154 79.4729C137.936 79.4848 137.717 79.4524 137.512 79.3777C137.307 79.303 137.119 79.1877 136.96 79.0386C136.802 78.8896 136.675 78.7101 136.589 78.511C136.503 78.3119 136.458 78.0974 136.458 77.8807C136.458 77.664 136.503 77.4495 136.589 77.2504C136.675 77.0513 136.802 76.8718 136.96 76.7228C137.119 76.5738 137.307 76.4584 137.512 76.3837C137.717 76.309 137.936 76.2766 138.154 76.2885C138.365 76.2714 138.577 76.2978 138.778 76.3661C138.978 76.4344 139.162 76.543 139.318 76.6852C139.474 76.8273 139.599 76.9999 139.684 77.1922C139.77 77.3844 139.814 77.5921 139.815 77.8022V77.8022ZM138.562 77.9021C138.569 77.8412 138.562 77.7795 138.543 77.7212C138.524 77.6629 138.492 77.6094 138.45 77.5643C138.409 77.5192 138.357 77.4835 138.3 77.4597C138.243 77.4358 138.182 77.4244 138.12 77.4261C137.993 77.4261 137.871 77.4763 137.781 77.5655C137.691 77.6548 137.64 77.7759 137.64 77.9021C137.64 78.0284 137.691 78.1494 137.781 78.2387C137.871 78.328 137.993 78.3781 138.12 78.3781C138.182 78.3799 138.243 78.3684 138.3 78.3446C138.357 78.3208 138.409 78.2851 138.45 78.2399C138.492 78.1948 138.524 78.1413 138.543 78.083C138.562 78.0247 138.569 77.9631 138.562 77.9021V77.9021Z" fill="#263238"/>
<path d="M143.39 77.6832V78.7542H142.843V77.7689C142.843 77.4642 142.709 77.3262 142.488 77.3262C142.267 77.3262 142.07 77.4833 142.07 77.8022V78.7542H141.523V77.7689C141.523 77.4642 141.394 77.3262 141.163 77.3262C140.933 77.3262 140.75 77.4833 140.75 77.8022V78.7542H140.203V76.8835H140.726V77.112C140.801 77.0305 140.892 76.9661 140.994 76.9233C141.096 76.8806 141.206 76.8605 141.317 76.8645C141.439 76.8589 141.56 76.8845 141.669 76.9386C141.779 76.9928 141.872 77.0738 141.941 77.1739C142.021 77.0736 142.125 76.9934 142.242 76.9397C142.36 76.8859 142.488 76.8602 142.618 76.8645C142.726 76.8572 142.834 76.8738 142.935 76.9131C143.035 76.9524 143.126 77.0135 143.2 77.0919C143.274 77.1703 143.329 77.264 143.362 77.3663C143.395 77.4685 143.405 77.5768 143.39 77.6832V77.6832Z" fill="#263238"/>
<path d="M145.55 77.688V78.7542H145.041V78.54C144.978 78.6311 144.891 78.7034 144.79 78.7495C144.688 78.7956 144.576 78.8137 144.465 78.8018C144.024 78.8018 143.76 78.5591 143.76 78.2354C143.76 77.9117 143.995 77.6737 144.571 77.6737H145.003C145.003 77.4452 144.864 77.3072 144.571 77.3072C144.375 77.3048 144.185 77.3667 144.029 77.4833L143.832 77.1025C144.073 76.9478 144.356 76.8682 144.643 76.874C145.219 76.855 145.55 77.112 145.55 77.688ZM145.003 78.164V77.9736H144.629C144.374 77.9736 144.293 78.0688 144.293 78.1925C144.293 78.3163 144.408 78.421 144.6 78.421C144.686 78.4266 144.771 78.4046 144.844 78.3584C144.917 78.3121 144.972 78.244 145.003 78.164V78.164Z" fill="#263238"/>
<path d="M145.982 76.3218C145.983 76.2791 145.992 76.2369 146.01 76.1979C146.028 76.159 146.053 76.1241 146.086 76.0955C146.118 76.0668 146.155 76.0451 146.196 76.0316C146.237 76.0182 146.28 76.0132 146.323 76.0172C146.382 76.0236 146.438 76.0468 146.484 76.0839C146.53 76.1211 146.564 76.1706 146.582 76.2265C146.6 76.2824 146.602 76.3423 146.586 76.3991C146.571 76.4558 146.539 76.5069 146.495 76.5463C146.451 76.5856 146.397 76.6115 146.338 76.6208C146.28 76.6301 146.22 76.6224 146.166 76.5987C146.111 76.575 146.065 76.5362 146.033 76.4871C146 76.438 145.983 76.3806 145.982 76.3218V76.3218ZM146.05 76.8835H146.592V78.7542H146.05V76.8835Z" fill="#263238"/>
<path d="M147.105 76.1599H147.653V78.7398H147.105V76.1599Z" fill="#263238"/>
<path d="M148.026 78.4449C148.026 78.3553 148.062 78.2693 148.126 78.2059C148.19 78.1425 148.277 78.1069 148.367 78.1069C148.458 78.1069 148.544 78.1425 148.608 78.2059C148.672 78.2693 148.708 78.3553 148.708 78.4449C148.708 78.5345 148.672 78.6205 148.608 78.6839C148.544 78.7473 148.458 78.7829 148.367 78.7829C148.277 78.7829 148.19 78.7473 148.126 78.6839C148.062 78.6205 148.026 78.5345 148.026 78.4449V78.4449Z" fill="#263238"/>
<path d="M148.915 77.8213C148.915 77.6883 148.942 77.5566 148.996 77.4348C149.05 77.313 149.129 77.2037 149.228 77.114C149.327 77.0243 149.444 76.9562 149.571 76.9141C149.698 76.8719 149.833 76.8567 149.967 76.8693C150.139 76.8548 150.313 76.8925 150.463 76.9775C150.614 77.0625 150.736 77.1907 150.811 77.3453L150.389 77.569C150.34 77.4981 150.274 77.4408 150.197 77.4026C150.119 77.3643 150.033 77.3465 149.947 77.3508C149.861 77.3551 149.777 77.3813 149.704 77.427C149.631 77.4726 149.57 77.5362 149.529 77.6116C149.488 77.6869 149.467 77.7715 149.468 77.8573C149.47 77.943 149.493 78.027 149.536 78.1011C149.58 78.1752 149.642 78.237 149.716 78.2806C149.791 78.3241 149.875 78.3479 149.962 78.3497C150.05 78.3498 150.136 78.3259 150.212 78.2806C150.287 78.2353 150.349 78.1702 150.389 78.0926L150.811 78.3211C150.734 78.4749 150.613 78.6023 150.462 78.6871C150.312 78.772 150.139 78.8102 149.967 78.7971C149.831 78.81 149.694 78.7941 149.565 78.7506C149.437 78.707 149.318 78.6367 149.219 78.5444C149.12 78.4522 149.041 78.3399 148.989 78.2153C148.936 78.0906 148.911 77.9563 148.915 77.8213V77.8213Z" fill="#263238"/>
<path d="M150.965 77.8214C150.949 77.6154 150.997 77.4097 151.101 77.2309C151.205 77.0521 151.361 76.9086 151.549 76.8189C151.736 76.7293 151.947 76.6978 152.153 76.7284C152.359 76.7591 152.55 76.8505 152.703 76.9908C152.856 77.1311 152.963 77.3137 153.009 77.5149C153.056 77.7162 153.04 77.9267 152.965 78.119C152.889 78.3114 152.756 78.4767 152.585 78.5934C152.413 78.7101 152.21 78.7728 152.002 78.7734C151.869 78.7839 151.736 78.7671 151.611 78.724C151.485 78.6809 151.37 78.6124 151.273 78.5229C151.175 78.4335 151.097 78.3249 151.044 78.2042C150.991 78.0834 150.964 77.9531 150.965 77.8214ZM152.482 77.8214C152.473 77.7295 152.438 77.642 152.381 77.5696C152.323 77.4971 152.245 77.4428 152.157 77.4133C152.069 77.3837 151.974 77.3802 151.884 77.4031C151.794 77.4261 151.713 77.4744 151.65 77.5424C151.587 77.6104 151.545 77.695 151.53 77.786C151.515 77.877 151.526 77.9704 151.564 78.0549C151.601 78.1394 151.662 78.2114 151.74 78.262C151.818 78.3127 151.909 78.3398 152.002 78.3402C152.068 78.3405 152.135 78.3269 152.196 78.3003C152.257 78.2738 152.312 78.2348 152.357 78.186C152.402 78.1372 152.437 78.0795 152.458 78.0167C152.48 77.9539 152.488 77.8874 152.482 77.8214Z" fill="#263238"/>
<path d="M156.591 77.6832V78.7542H156.043V77.7689C156.043 77.4642 155.904 77.3262 155.683 77.3262C155.463 77.3262 155.266 77.4833 155.266 77.8022V78.7542H154.719V77.7689C154.719 77.4642 154.589 77.3262 154.363 77.3262C154.138 77.3262 153.951 77.4833 153.951 77.8022V78.7542H153.403V76.8835H153.922V77.112C153.997 77.0304 154.089 76.966 154.192 76.9232C154.295 76.8805 154.406 76.8604 154.517 76.8645C154.638 76.8584 154.759 76.8837 154.868 76.9379C154.976 76.9922 155.069 77.0735 155.136 77.1739C155.218 77.0738 155.322 76.9938 155.44 76.9401C155.559 76.8864 155.688 76.8606 155.818 76.8645C155.926 76.8572 156.034 76.8738 156.135 76.9131C156.235 76.9524 156.326 77.0135 156.4 77.0919C156.474 77.1703 156.53 77.264 156.563 77.3663C156.595 77.4685 156.605 77.5768 156.591 77.6832V77.6832Z" fill="#263238"/>
<path d="M125.073 90.7209L125.961 91.1969L125.563 91.8586L124.665 91.335V92.3156H123.897V91.3255L123.028 91.8681L122.635 91.2065L123.528 90.7305L122.635 90.2545L123.028 89.5928L123.926 90.1259V89.1406H124.694V90.1259L125.592 89.5928L125.99 90.2545L125.073 90.7209Z" fill="#263238"/>
<path d="M128.774 90.7209L129.662 91.1969L129.264 91.8681L128.366 91.3445V92.3251H127.603V91.335L126.72 91.8681L126.326 91.2065L127.214 90.7305L126.326 90.2545L126.72 89.5928L127.617 90.1259V89.1406H128.381V90.1259L129.278 89.5928L129.677 90.2545L128.774 90.7209Z" fill="#263238"/>
<path d="M132.479 90.7209L133.367 91.1969L132.959 91.8681L132.067 91.3445V92.3251H131.299V91.335L130.425 91.8681L130.036 91.2065L130.924 90.7305L130.036 90.2545L130.425 89.5928L131.323 90.1259V89.1406H132.091V90.1259L132.983 89.5928L133.387 90.2545L132.479 90.7209Z" fill="#263238"/>
<path d="M136.171 90.7209L137.059 91.1969L136.66 91.8586L135.763 91.335V92.3156H134.995V91.3255L134.126 91.8681L133.732 91.2065L134.625 90.7305L133.732 90.2545L134.126 89.5928L135.024 90.1259V89.1406H135.792V90.1259L136.689 89.5928L137.088 90.2545L136.171 90.7209Z" fill="#263238"/>
<path d="M139.872 90.7209L140.76 91.1969L140.362 91.8586L139.464 91.335V92.3155H138.72V91.3255L137.827 91.8681L137.434 91.2065L138.322 90.7305L137.434 90.2545L137.827 89.5928L138.72 90.1069V89.1216H139.483V90.1069L140.381 89.5738L140.779 90.2354L139.872 90.7209Z" fill="#263238"/>
<path d="M143.572 90.7209L144.46 91.1969L144.062 91.8586L143.164 91.335V92.3156H142.396V91.3255L141.523 91.8681L141.134 91.2065L142.022 90.7305L141.134 90.2545L141.523 89.5928L142.42 90.1259V89.1406H143.188V90.1259L144.086 89.5928L144.484 90.2545L143.572 90.7209Z" fill="#263238"/>
<path d="M147.268 90.7209L148.156 91.1969L147.758 91.8586L146.86 91.335V92.3156H146.092V91.3255L145.224 91.8681L144.83 91.2065L145.723 90.7305L144.83 90.2545L145.224 89.5928L146.121 90.1259V89.1406H146.88V90.1259L147.777 89.5928L148.176 90.2545L147.268 90.7209Z" fill="#263238"/>
<path d="M150.97 90.7209L151.858 91.1969L151.459 91.8586L150.562 91.335V92.3156H149.798V91.3255L148.925 91.8681L148.531 91.2065L149.419 90.7305L148.531 90.2545L148.925 89.5928L149.822 90.1259V89.1406H150.586V90.1259L151.483 89.5928L151.882 90.2545L150.97 90.7209Z" fill="#263238"/>
<path d="M107.375 64.4265H69.9832C69.7275 64.4265 69.4743 64.4765 69.2382 64.5737C69.002 64.6709 68.7875 64.8133 68.6069 64.9928C68.4263 65.1723 68.2832 65.3854 68.1858 65.6199C68.0884 65.8543 68.0386 66.1055 68.0392 66.3591V83.2476C68.036 83.5016 68.0841 83.7537 68.1806 83.9891C68.2772 84.2244 68.4203 84.4382 68.6014 84.6178C68.7826 84.7975 68.9982 84.9394 69.2355 85.0351C69.4728 85.1309 69.727 85.1786 69.9832 85.1754H85.6696L89.0008 89.4165L91.78 85.1754H107.375C107.631 85.1754 107.883 85.1255 108.119 85.0286C108.355 84.9317 108.569 84.7897 108.75 84.6107C108.93 84.4317 109.074 84.2192 109.171 83.9853C109.269 83.7514 109.319 83.5007 109.319 83.2476V66.3591C109.319 65.8473 109.115 65.3565 108.75 64.9942C108.386 64.6319 107.891 64.4278 107.375 64.4265Z" fill="white"/>
<path d="M107.376 64.4265H107.558C107.74 64.4422 107.92 64.4822 108.091 64.5455C108.371 64.6452 108.624 64.8082 108.83 65.0215C109.124 65.3353 109.305 65.7372 109.344 66.1639C109.382 68.0013 109.373 70.6764 109.387 74.0655C109.387 75.7601 109.387 77.6308 109.387 79.6585C109.387 80.6772 109.387 81.7291 109.387 82.8239C109.4 83.1038 109.387 83.3842 109.349 83.6617C109.29 83.9505 109.168 84.2233 108.993 84.4614C108.814 84.7055 108.581 84.9066 108.313 85.0499C108.045 85.1933 107.747 85.2752 107.443 85.2896H91.7566L91.8526 85.242C90.979 86.57 90.0382 88.0123 89.0782 89.4784L88.987 89.6164L88.8814 89.4879L85.5502 85.2515L85.6462 85.2991H70.5598C70.2862 85.2991 70.0318 85.2991 69.739 85.2991C69.313 85.2488 68.9131 85.069 68.5943 84.7843C68.2755 84.4997 68.0532 84.1241 67.9582 83.7093C67.9103 83.4423 67.8926 83.1709 67.9054 82.9001V75.9267C67.9054 73.8989 67.9054 71.9108 67.9054 69.9624V66.3591C67.9056 66.1083 67.9528 65.8597 68.0446 65.626C68.2225 65.1616 68.5634 64.7763 69.0046 64.5408C69.225 64.429 69.4641 64.358 69.7102 64.3313C69.9468 64.3196 70.1839 64.3196 70.4206 64.3313H74.5054H79.6798H88.963L102.403 64.3694L106.056 64.3932H107.016H107.342H107.016H106.056L102.403 64.417L88.963 64.4551H79.6798H70.459C70.2286 64.4551 69.979 64.4551 69.7726 64.4551C69.5545 64.4799 69.343 64.5444 69.1486 64.6455C68.7516 64.8471 68.4426 65.1857 68.2798 65.5975C68.1974 65.8052 68.1551 66.0264 68.155 66.2496V66.9636C68.155 67.9156 68.155 68.8676 68.155 69.8529V75.8172C68.155 77.8418 68.155 79.9045 68.155 82.0052V82.7954C68.1398 83.0485 68.1543 83.3024 68.1982 83.5522C68.2828 83.9168 68.479 84.2466 68.76 84.4963C69.041 84.746 69.393 84.9034 69.7678 84.9469C70.0126 84.9707 70.2958 84.9469 70.5598 84.9469H85.7278L85.7662 84.9945L89.0974 89.2309H88.9006L91.6798 84.9945L91.7134 84.9421H91.7806H107.457C107.733 84.933 108.004 84.8613 108.247 84.7326C108.491 84.6039 108.702 84.4216 108.864 84.1996C109.026 83.9859 109.138 83.7385 109.19 83.476C109.227 83.2096 109.24 82.9403 109.229 82.6716C109.229 81.5768 109.229 80.5248 109.229 79.5062C109.229 77.4784 109.229 75.6078 109.229 73.9132C109.229 70.5336 109.229 67.8585 109.253 66.0164C109.21 65.6182 109.042 65.2434 108.773 64.9454C108.576 64.727 108.331 64.5561 108.057 64.4456C107.832 64.4071 107.603 64.4007 107.376 64.4265Z" fill="#263238"/>
<path d="M81.6763 69.196V69.8195H81.2683V69.1912L80.5771 68.0679H81.0139L81.4939 68.8485L81.9739 68.0679H82.3771L81.6763 69.196Z" fill="#263238"/>
<path d="M82.3584 68.9389C82.3498 68.749 82.3987 68.561 82.4988 68.3989C82.5989 68.2368 82.7456 68.1081 82.9201 68.0295C83.0946 67.9508 83.2888 67.9257 83.4778 67.9575C83.6668 67.9892 83.8418 68.0763 83.9804 68.2076C84.1191 68.3389 84.2149 68.5083 84.2555 68.694C84.2962 68.8798 84.2799 69.0733 84.2087 69.2498C84.1375 69.4263 84.0146 69.5775 83.8559 69.6842C83.6973 69.7908 83.5101 69.8479 83.3184 69.8481C83.1944 69.8539 83.0705 69.8347 82.9543 69.7916C82.838 69.7485 82.7318 69.6824 82.642 69.5974C82.5522 69.5124 82.4808 69.4102 82.4321 69.297C82.3833 69.1838 82.3583 69.062 82.3584 68.9389ZM83.8848 68.9389C83.8838 68.8299 83.8504 68.7236 83.7886 68.6335C83.7269 68.5433 83.6396 68.4733 83.5378 68.4322C83.4359 68.3911 83.3241 68.3809 83.2165 68.4027C83.1088 68.4246 83.01 68.4775 82.9326 68.5549C82.8552 68.6323 82.8027 68.7307 82.7816 68.8377C82.7605 68.9447 82.7718 69.0555 82.8141 69.1561C82.8563 69.2567 82.9277 69.3426 83.0192 69.4031C83.1106 69.4636 83.2181 69.4958 83.328 69.4958C83.4021 69.4978 83.4758 69.4848 83.5446 69.4574C83.6133 69.4301 83.6757 69.3891 83.7279 69.3369C83.7801 69.2847 83.8209 69.2224 83.8479 69.154C83.8749 69.0856 83.8874 69.0124 83.8848 68.9389V68.9389Z" fill="#263238"/>
<path d="M84.5996 69.0437V68.0679H85.0124V69.0199C85.0124 69.3531 85.1612 69.4959 85.406 69.4959C85.6508 69.4959 85.8044 69.3578 85.8044 69.0199V68.0679H86.2124V69.0532C86.2124 69.2653 86.1274 69.4687 85.9762 69.6186C85.825 69.7686 85.6199 69.8529 85.406 69.8529C85.1921 69.8529 84.987 69.7686 84.8358 69.6186C84.6846 69.4687 84.5996 69.2653 84.5996 69.0532V69.0437Z" fill="#263238"/>
<path d="M87.7529 69.8195L87.4121 69.3435H87.0329V69.8195H86.6201V68.0679H87.3881C87.8681 68.0679 88.1609 68.3106 88.1609 68.7057C88.1663 68.8247 88.1339 68.9423 88.0685 69.0421C88.0031 69.142 87.9079 69.2191 87.7961 69.2626L88.1945 69.8291L87.7529 69.8195ZM87.3689 68.3915H87.0329V69.0199H87.3689C87.6185 69.0199 87.7433 68.9009 87.7433 68.7105C87.7433 68.5201 87.6185 68.3868 87.3593 68.3868L87.3689 68.3915Z" fill="#263238"/>
<path d="M89.0977 68.939C89.0992 68.7438 89.1613 68.5538 89.2754 68.3947C89.3896 68.2356 89.5502 68.1152 89.7357 68.0497C89.9212 67.9843 90.1225 67.9769 90.3123 68.0287C90.5021 68.0805 90.6713 68.1889 90.7969 68.3393L90.5329 68.582C90.4785 68.5156 90.4096 68.4622 90.3315 68.4259C90.2533 68.3897 90.1679 68.3714 90.0817 68.3726C89.9398 68.3855 89.808 68.4505 89.712 68.5549C89.616 68.6592 89.5628 68.7954 89.5628 68.9366C89.5628 69.0779 89.616 69.214 89.712 69.3184C89.808 69.4227 89.9398 69.4878 90.0817 69.5007C90.1676 69.5028 90.2529 69.4854 90.3311 69.45C90.4092 69.4145 90.4782 69.3618 90.5329 69.296L90.7969 69.534C90.6715 69.684 90.5028 69.7923 90.3134 69.8443C90.1241 69.8962 89.9232 69.8892 89.7379 69.8244C89.5527 69.7595 89.392 69.6398 89.2775 69.4815C89.163 69.3232 89.1002 69.1338 89.0977 68.939Z" fill="#263238"/>
<path d="M90.9268 68.9389C90.9181 68.749 90.967 68.561 91.0671 68.3989C91.1672 68.2368 91.314 68.1081 91.4885 68.0295C91.6629 67.9508 91.8572 67.9257 92.0462 67.9575C92.2351 67.9892 92.4102 68.0763 92.5488 68.2076C92.6874 68.3389 92.7833 68.5083 92.8239 68.694C92.8646 68.8798 92.8483 69.0733 92.7771 69.2498C92.7059 69.4263 92.583 69.5775 92.4243 69.6842C92.2657 69.7908 92.0784 69.8479 91.8868 69.8481C91.7628 69.8539 91.6389 69.8347 91.5226 69.7916C91.4064 69.7485 91.3001 69.6824 91.2104 69.5974C91.1206 69.5124 91.0492 69.4102 91.0004 69.297C90.9517 69.1838 90.9266 69.062 90.9268 68.9389ZM92.4532 68.9389C92.4513 68.8301 92.417 68.7243 92.3547 68.6348C92.2924 68.5453 92.2048 68.476 92.1029 68.4356C92.001 68.3953 91.8893 68.3857 91.782 68.4081C91.6746 68.4305 91.5763 68.4838 91.4994 68.5614C91.4225 68.6389 91.3704 68.7373 91.3497 68.8442C91.3289 68.951 91.3405 69.0616 91.3829 69.1619C91.4253 69.2622 91.4967 69.3479 91.588 69.4082C91.6794 69.4684 91.7867 69.5006 91.8964 69.5006C91.9709 69.5026 92.045 69.4894 92.1141 69.4618C92.1832 69.4342 92.2459 69.3927 92.2981 69.34C92.3504 69.2873 92.3911 69.2245 92.4178 69.1555C92.4444 69.0865 92.4565 69.0128 92.4532 68.9389Z" fill="#263238"/>
<path d="M93.1826 68.068H93.9938C94.1182 68.0552 94.2439 68.0684 94.3628 68.1068C94.4817 68.1452 94.5911 68.2079 94.684 68.2909C94.7769 68.3739 94.8511 68.4754 94.902 68.5887C94.9528 68.702 94.9791 68.8246 94.9791 68.9486C94.9791 69.0726 94.9528 69.1952 94.902 69.3085C94.8511 69.4218 94.7769 69.5232 94.684 69.6063C94.5911 69.6893 94.4817 69.752 94.3628 69.7904C94.2439 69.8288 94.1182 69.842 93.9938 69.8292H93.1826V68.068ZM93.9698 69.496C94.1162 69.496 94.2566 69.4383 94.3601 69.3357C94.4637 69.233 94.5218 69.0938 94.5218 68.9486C94.5218 68.8034 94.4637 68.6642 94.3601 68.5615C94.2566 68.4589 94.1162 68.4012 93.9698 68.4012H93.6002V69.496H93.9698Z" fill="#263238"/>
<path d="M96.6618 69.4959V69.8243H95.2842V68.0679H96.6282V68.3915H95.6922V68.7771H96.5178V69.096H95.6922V69.4959H96.6618Z" fill="#263238"/>
<path d="M103.728 71.6714H73.6366C72.6955 71.6714 71.9326 72.4279 71.9326 73.3612V79.6634C71.9326 80.5967 72.6955 81.3532 73.6366 81.3532H103.728C104.669 81.3532 105.432 80.5967 105.432 79.6634V73.3612C105.432 72.4279 104.669 71.6714 103.728 71.6714Z" fill="#F5F5F5"/>
<path d="M78.7194 77.1119C78.7203 77.3112 78.6791 77.5085 78.5985 77.691C78.5179 77.8736 78.3996 78.0374 78.2513 78.1719C78.103 78.3064 77.928 78.4086 77.7374 78.472C77.5469 78.5354 77.3451 78.5585 77.145 78.5399C75.9066 78.5399 75.249 77.6546 75.249 76.1885C75.249 74.5986 76.0986 73.7847 77.3514 73.7847C77.7232 73.7687 78.0926 73.8508 78.4218 74.0227L78.2826 74.2988C77.9979 74.1441 77.6758 74.07 77.3514 74.0846C76.2906 74.0846 75.5946 74.7748 75.5946 76.1361C75.5931 76.324 75.606 76.5118 75.633 76.6978C75.7458 76.3982 75.9539 76.1432 76.2258 75.9714C76.4978 75.7997 76.8188 75.7204 77.1402 75.7458C78.105 75.7125 78.7194 76.2599 78.7194 77.1119ZM78.3738 77.1119C78.3738 76.4408 77.8938 76.0076 77.0922 76.0076C76.9312 75.9912 76.7686 76.0076 76.6142 76.0557C76.4598 76.1038 76.3169 76.1826 76.1943 76.2873C76.0716 76.392 75.9718 76.5203 75.9009 76.6646C75.83 76.8088 75.7895 76.9659 75.7818 77.1262C75.7818 77.6736 76.2618 78.2258 77.1354 78.2258C77.2939 78.2455 77.4549 78.2313 77.6074 78.1842C77.76 78.137 77.9005 78.058 78.0197 77.9525C78.1389 77.847 78.2338 77.7173 78.2982 77.5723C78.3626 77.4273 78.395 77.2703 78.393 77.1119H78.3738Z" fill="#B5B9BF"/>
<path d="M85.0126 77.1882H84.0238V78.4877H83.683V77.1882H80.9902V76.9407L83.5582 73.7991H83.9422L81.4222 76.8836H83.6926V75.7412H84.0238V76.8836H85.0126V77.1882Z" fill="#B5B9BF"/>
<path d="M90.264 77.1644C90.264 77.945 89.6976 78.521 88.608 78.521C88.3016 78.5327 87.996 78.4827 87.7097 78.3738C87.4234 78.265 87.1624 78.0997 86.9424 77.8879L87.1152 77.6261C87.3113 77.8179 87.5449 77.968 87.8016 78.067C88.0583 78.1661 88.3327 78.212 88.608 78.2021C89.4576 78.2021 89.9136 77.8022 89.9136 77.1644C89.9136 76.5266 89.4816 76.1267 88.536 76.1267H88.2384V75.8792L89.6352 74.1037H87.1152V73.78H90.0816V74.018L88.6416 75.8221C89.76 75.8649 90.264 76.4028 90.264 77.1644Z" fill="#B5B9BF"/>
<path d="M96.0001 73.78V74.018L93.9697 78.4686H93.5905L95.6017 74.0847H92.9473V74.9843H92.6113V73.78H96.0001Z" fill="#B5B9BF"/>
<path d="M98.4004 76.16C98.4004 74.694 99.1636 73.78 100.248 73.78C101.333 73.78 102.101 74.6892 102.101 76.16C102.101 77.6309 101.338 78.54 100.248 78.54C99.1588 78.54 98.4004 77.588 98.4004 76.16ZM101.76 76.16C101.76 74.8558 101.146 74.0989 100.253 74.0989C99.3604 74.0989 98.746 74.8558 98.746 76.16C98.746 77.4643 99.3604 78.2211 100.253 78.2211C101.146 78.2211 101.76 77.4452 101.76 76.16Z" fill="#B5B9BF"/>
<path d="M33.8935 223.035H29.5975L28.0039 203.847H33.0631L33.8935 223.035Z" fill="#263238"/>
<path d="M71.1416 223.035H75.4376L77.0312 203.847H71.972L71.1416 223.035Z" fill="#263238"/>
<path d="M79.9827 206.279L24.6675 207.565L22.9875 172.136C22.9478 171.314 23.0769 170.493 23.3668 169.722C23.6568 168.951 24.1016 168.246 24.6742 167.651C25.2469 167.055 25.9355 166.581 26.6984 166.257C27.4613 165.934 28.2825 165.767 29.1123 165.767H76.2435C77.0846 165.767 77.9168 165.939 78.6883 166.271C79.4598 166.603 80.1541 167.09 80.7281 167.7C81.3021 168.309 81.7434 169.03 82.0248 169.816C82.3061 170.602 82.4214 171.437 82.3635 172.269L79.9827 206.279Z" fill="#B5B9BF"/>
<path d="M82.8193 172.017H82.6657H82.2097L80.4673 172.046H74.0545C68.6401 172.046 61.1617 171.998 52.9057 172.188C44.6449 172.46 37.1569 172.412 31.7473 172.331C29.0401 172.288 26.8465 172.236 25.3345 172.188L23.5921 172.131H23.1409C23.0899 172.138 23.0383 172.138 22.9873 172.131H23.1409H23.5921H25.3345L31.7473 172.193C37.1617 172.231 44.6401 172.25 52.9009 171.974C61.1617 171.789 68.6401 171.874 74.0545 171.912L80.4673 171.965L82.2097 171.988H82.6657L82.8193 172.017Z" fill="#263238"/>
<path d="M43.162 166.319C41.9187 166.499 40.7089 166.86 39.5716 167.39C38.4703 167.991 37.4657 168.751 36.5908 169.646C36.767 169.315 36.9991 169.015 37.2772 168.761C38.5531 167.459 40.2272 166.613 42.0388 166.352C42.4083 166.276 42.7886 166.265 43.162 166.319V166.319Z" fill="#263238"/>
<path d="M65.9143 101.902L72.6727 114.15L82.5607 108.657L87.3607 110.232C87.3607 110.232 75.2455 123.284 73.2727 123.965C71.2999 124.645 67.5655 124.755 65.4343 122.104C63.5143 119.69 57.8311 107.029 57.8311 107.029L65.9143 101.902Z" fill="#FFBE9D"/>
<path d="M93.7493 93.9054C93.6626 93.7998 93.5499 93.7181 93.4221 93.6681C93.2944 93.6181 93.1558 93.6014 93.0197 93.6198L88.3205 94.2481C88.1163 94.2784 87.921 94.3519 87.7479 94.4636C87.5748 94.5753 87.4279 94.7226 87.3173 94.8955L77.5205 109.818L78.2693 110.232L83.4821 110.07L93.8981 94.0911L93.7493 93.9054Z" fill="#263238"/>
<path d="M90.4129 95.8426C90.4505 95.9017 90.5059 95.9475 90.5712 95.9737C90.6365 95.9999 90.7084 96.005 90.7769 95.9884C90.8453 95.9718 90.9067 95.9343 90.9525 95.8812C90.9983 95.8281 91.026 95.762 91.0319 95.6924C91.0377 95.6228 91.0214 95.5531 90.9851 95.4932C90.9488 95.4333 90.8945 95.3863 90.8298 95.3587C90.7651 95.3311 90.6933 95.3243 90.6245 95.3394C90.5557 95.3545 90.4934 95.3906 90.4465 95.4427C90.3911 95.4929 90.3569 95.562 90.3506 95.6361C90.3444 95.7103 90.3666 95.784 90.4129 95.8426V95.8426Z" fill="white"/>
<path d="M93.8981 94.0908C93.5993 94.1738 93.2943 94.2327 92.9861 94.2669L90.4901 94.6525L88.7669 94.9C88.6207 94.913 88.4794 94.9582 88.3531 95.0323C88.2269 95.1064 88.119 95.2076 88.0373 95.3284L87.4805 96.1852C86.7077 97.3609 85.8677 98.6509 84.9845 99.9932C83.2037 102.697 81.5812 105.139 80.3908 106.9L78.9748 109.004C78.8102 109.265 78.6257 109.513 78.4229 109.746C78.558 109.466 78.7187 109.198 78.9029 108.947L80.2468 106.824C81.394 105.034 82.9877 102.578 84.7685 99.8742C85.6613 98.5271 86.5109 97.2419 87.2837 96.0662C87.4805 95.7759 87.6725 95.4903 87.8549 95.2094C87.9572 95.0636 88.0907 94.9419 88.2458 94.8531C88.401 94.7642 88.5739 94.7104 88.7525 94.6953L90.4853 94.4764L92.9957 94.1813C93.2936 94.1275 93.5953 94.0973 93.8981 94.0908V94.0908Z" fill="#455A64"/>
<path d="M88.6705 99.4173C88.6705 99.4173 88.2529 99.3459 88.0225 100.484C87.7921 101.621 87.0625 104.887 87.0625 104.887L84.8641 103.73L82.1089 104.087C82.1089 104.087 81.5089 104.634 81.9505 104.934C82.3921 105.234 84.1297 105.539 84.1297 105.539L85.4113 107.371L81.7297 105.61C81.7297 105.61 80.5009 105.929 80.8609 106.672C81.2209 107.414 83.7025 109.742 83.7025 109.742L81.8593 109.604L79.6801 108.28C79.6801 108.28 79.0081 108.314 79.2577 108.88C79.5073 109.447 81.7921 111.503 81.7921 111.503L84.5569 112.836C84.5569 112.836 86.0689 112.717 86.2129 112.274C86.3107 111.926 86.3718 111.569 86.3953 111.208C86.3953 111.208 87.1969 110.994 87.3553 110.608C87.4435 110.284 87.4615 109.945 87.4081 109.613C87.4081 109.613 88.6657 109.832 88.8241 109.137C88.9341 108.271 88.8984 107.393 88.7185 106.538C88.5937 106 89.2561 101.026 89.1985 100.879C89.1409 100.731 89.4625 99.0889 88.6705 99.4173Z" fill="#FFBE9D"/>
<path d="M86.2853 112.284C86.0668 112.413 85.8197 112.489 85.5653 112.503C84.3388 112.679 83.0906 112.385 82.0757 111.679C81.6965 111.408 81.5093 111.203 81.5333 111.16C81.5573 111.117 82.4597 111.841 83.8037 112.15C85.1477 112.46 86.2709 112.198 86.2853 112.284Z" fill="#EB996E"/>
<path d="M85.6321 111.298C85.5889 111.36 85.0945 111.108 84.5713 110.679C84.0481 110.251 83.7025 109.827 83.7553 109.775C83.8081 109.723 84.2353 110.046 84.7537 110.465C85.2721 110.884 85.6753 111.232 85.6321 111.298Z" fill="#EB996E"/>
<path d="M87.0866 108.933C87.0434 108.995 86.5538 108.747 86.0642 108.295C85.5746 107.843 85.2866 107.386 85.3442 107.343C85.4018 107.3 85.7858 107.662 86.2562 108.095C86.7266 108.528 87.1298 108.866 87.0866 108.933Z" fill="#EB996E"/>
<path d="M88.6185 107.024C88.5417 107.057 88.2633 106.548 87.8265 105.982C87.3897 105.415 86.9625 105.03 87.0105 104.953C87.0585 104.877 87.5865 105.21 88.0473 105.81C88.3631 106.144 88.5632 106.569 88.6185 107.024Z" fill="#EB996E"/>
<path d="M90.4857 195.303C90.5223 195.154 90.5223 194.999 90.4857 194.851C90.4079 194.439 90.2444 194.049 90.0057 193.703C89.9277 193.584 89.8359 193.474 89.7321 193.375C89.6641 193.311 89.5801 193.267 89.4888 193.247C89.3975 193.227 89.3025 193.232 89.2137 193.261C89.1615 193.279 89.114 193.308 89.075 193.347C89.0359 193.386 89.0062 193.433 88.9881 193.484C88.9545 193.583 88.9545 193.69 88.9881 193.789C89.0537 193.955 89.134 194.114 89.2281 194.265C89.4057 194.565 89.5545 194.86 89.7849 195.217C89.8521 195.313 89.9443 195.389 90.0517 195.437C90.1591 195.484 90.2776 195.502 90.3945 195.488C90.6091 195.45 90.8115 195.362 90.9849 195.231C91.3028 195 91.5927 194.733 91.8489 194.436C91.9723 194.295 92.0877 194.148 92.1945 193.994C92.3112 193.843 92.3976 193.672 92.4489 193.489C92.4776 193.382 92.4674 193.268 92.42 193.167C92.3727 193.066 92.2912 192.985 92.1897 192.937C92.0947 192.909 91.9941 192.906 91.8975 192.928C91.8009 192.949 91.7114 192.995 91.6377 193.061C91.4182 193.251 91.2246 193.469 91.0617 193.708C90.8202 194.045 90.6279 194.413 90.4905 194.803C90.4273 194.94 90.3946 195.09 90.3945 195.241C90.622 194.74 90.8968 194.262 91.2153 193.813C91.378 193.599 91.5648 193.404 91.7721 193.232C91.8825 193.156 92.0169 193.104 92.0985 193.146C92.1459 193.174 92.1823 193.217 92.2015 193.268C92.2207 193.319 92.2216 193.376 92.2041 193.427C92.1543 193.576 92.0779 193.715 91.9785 193.837C91.8777 193.979 91.7673 194.118 91.6521 194.256C91.4037 194.532 91.127 194.783 90.8265 195.003C90.686 195.11 90.5213 195.182 90.3465 195.212C90.2749 195.221 90.2022 195.21 90.1369 195.179C90.0715 195.149 90.0161 195.101 89.9769 195.041C89.7897 194.77 89.6073 194.432 89.4297 194.151C89.3481 194.003 89.2473 193.86 89.1993 193.741C89.1513 193.622 89.1993 193.527 89.2713 193.489C89.4777 193.408 89.6841 193.642 89.8233 193.837C90.1354 194.28 90.3601 194.777 90.4857 195.303V195.303Z" fill="#263238"/>
<path d="M78.692 195.703L72.836 208.293L63.3848 203.961L69.4424 188.382L78.692 195.703Z" fill="#FFBE9D"/>
<path d="M73.9209 207.45L70.4985 213.924C70.4985 213.924 79.2585 222.906 78.4377 224.915L57.8457 215.124L63.5001 202.143L73.9209 207.45Z" fill="#455A64"/>
<path d="M64.5802 210.011C64.3539 209.983 64.1248 210.035 63.934 210.159C63.7431 210.283 63.6029 210.47 63.5386 210.687C63.4951 210.911 63.5402 211.142 63.6645 211.334C63.7887 211.525 63.9826 211.662 64.2058 211.715C64.4462 211.751 64.6915 211.698 64.8945 211.565C65.0975 211.432 65.2437 211.23 65.305 210.997C65.3254 210.758 65.2517 210.521 65.0995 210.336C64.9473 210.15 64.7285 210.03 64.489 210.002" fill="#E0E0E0"/>
<g opacity="0.6">
<path opacity="0.6" d="M57.8643 215.123L58.7187 213.495L78.1442 223.491C78.1442 223.491 78.869 224.32 78.4562 224.919L57.8643 215.123Z" fill="white"/>
</g>
<path d="M70.9017 213.976C70.8537 214.076 70.3257 213.881 69.6777 213.976C69.0297 214.072 68.5593 214.357 68.4873 214.271C68.4153 214.186 68.8425 213.686 69.6297 213.596C70.4169 213.505 70.9689 213.895 70.9017 213.976Z" fill="#263238"/>
<path d="M72.634 215.89C72.634 215.999 72.0916 215.961 71.5492 216.218C71.0068 216.475 70.69 216.88 70.5892 216.828C70.4884 216.775 70.6996 216.18 71.386 215.876C72.0724 215.571 72.6772 215.795 72.634 215.89Z" fill="#263238"/>
<path d="M72.6199 219.036C72.5191 219.036 72.6199 218.451 73.1431 218.027C73.6663 217.604 74.2423 217.608 74.2423 217.713C74.2423 217.818 73.8151 217.97 73.3879 218.322C72.9607 218.675 72.7255 219.074 72.6199 219.036Z" fill="#263238"/>
<path d="M71.8851 211.487C71.7987 211.558 71.4051 211.201 70.8195 210.968C70.2339 210.735 69.7011 210.701 69.6915 210.592C69.6819 210.482 70.2771 210.33 70.9635 210.592C71.6499 210.854 71.9715 211.43 71.8851 211.487Z" fill="#263238"/>
<path d="M75.8693 205.77L91.3109 167.457C91.3109 167.457 90.9605 160.916 89.7461 158.855C88.5317 156.794 51.7541 144.747 51.7541 144.747C51.7541 144.747 42.3893 142.51 36.1397 144.747C29.8901 146.984 25.2101 154.743 26.0597 159.027C26.9093 163.311 30.5861 166.486 30.5861 166.486L57.6341 167.285L72.3749 172.617L62.4485 200.829L75.8693 205.77Z" fill="#263238"/>
<path d="M89.6023 179.59L89.9527 193.446L79.5416 193.703L78.0439 177.072L89.6023 179.59Z" fill="#FFBE9D"/>
<path d="M90.572 192.209L90.38 199.516C90.38 199.516 102.236 203.738 102.38 205.903L79.5464 206.132L78.8408 192.009L90.572 192.209Z" fill="#455A64"/>
<path d="M83.3088 198.606C83.0898 198.674 82.904 198.821 82.7871 199.017C82.6701 199.212 82.6303 199.444 82.6752 199.668C82.7363 199.887 82.8797 200.075 83.0761 200.193C83.2725 200.31 83.507 200.349 83.7312 200.301C83.9626 200.227 84.1584 200.071 84.2807 199.863C84.403 199.654 84.4432 199.409 84.3936 199.173C84.3073 198.949 84.1367 198.768 83.918 198.668C83.6994 198.568 83.4498 198.556 83.2224 198.635" fill="#E0E0E0"/>
<g opacity="0.6">
<path opacity="0.6" d="M79.5605 206.132L79.6037 204.294L101.482 204.77C101.482 204.77 102.5 205.199 102.394 205.913L79.5605 206.132Z" fill="white"/>
</g>
<path d="M90.7494 199.397C90.7494 199.506 90.1878 199.563 89.6454 199.925C89.103 200.287 88.8102 200.753 88.7094 200.71C88.6086 200.668 88.767 200.025 89.4342 199.601C90.1014 199.178 90.7734 199.297 90.7494 199.397Z" fill="#263238"/>
<path d="M93.1538 200.353C93.1826 200.463 92.6978 200.653 92.3234 201.124C91.949 201.595 91.8434 202.076 91.7378 202.076C91.6322 202.076 91.5458 201.448 92.0258 200.867C92.5058 200.286 93.149 200.248 93.1538 200.353Z" fill="#263238"/>
<path d="M94.56 203.185C94.4592 203.209 94.3008 202.657 94.56 202.048C94.8192 201.438 95.3616 201.196 95.4096 201.286C95.4576 201.377 95.136 201.705 94.9296 202.205C94.7232 202.705 94.6512 203.171 94.56 203.185Z" fill="#263238"/>
<path d="M90.5184 196.731C90.4752 196.831 89.9616 196.683 89.3328 196.731C88.704 196.778 88.2144 196.983 88.152 196.888C88.0896 196.793 88.56 196.412 89.304 196.35C90.048 196.288 90.576 196.64 90.5184 196.731Z" fill="#263238"/>
<path d="M83.5207 141.11C83.5207 141.11 89.7607 140.634 90.4519 147.327C91.1431 154.019 91.8247 185.35 91.8247 185.35L77.2807 186.554L75.0247 154.553L51.7783 144.747C51.7783 144.747 79.3591 140.254 83.5207 141.11Z" fill="#263238"/>
<path d="M57.8213 132.057C57.8213 132.057 61.6037 142.581 60.8837 143.752C60.1637 144.923 50.4341 149.75 50.4341 149.75L26.0789 159.027C26.0789 159.027 23.5781 155.081 23.5781 149.031C23.5781 142.981 32.0501 132.066 32.0501 132.066L57.8213 132.057Z" fill="#263238"/>
<path d="M50.6016 144.228C50.6377 144.253 50.6763 144.273 50.7168 144.29L51.0624 144.447L52.4112 145.042L57.4752 147.232L74.952 154.691L74.8704 154.581C75.0912 157.742 75.3504 161.155 75.576 164.687C76.1712 172.945 76.7184 180.556 77.1504 186.583V186.692H77.2608L87.8784 185.769L90.8016 185.497L91.5648 185.421L91.824 185.383C91.7361 185.376 91.6478 185.376 91.56 185.383L90.7968 185.431L87.8688 185.645L77.2416 186.473L77.3616 186.573C76.944 180.552 76.4016 172.936 75.8448 164.677C75.5952 161.145 75.3648 157.732 75.1248 154.572V154.495L75.0528 154.462L57.5376 147.084L52.4448 144.971L51.0816 144.414L50.7264 144.276C50.6861 144.257 50.6443 144.241 50.6016 144.228V144.228Z" fill="#455A64"/>
<path d="M31.2344 145.261C31.469 145.225 31.6991 145.164 31.9208 145.08L33.7544 144.49C35.7556 143.819 37.8066 143.305 39.8888 142.952C41.9719 142.615 44.0984 142.643 46.172 143.033C47.756 143.362 48.668 143.809 48.6872 143.757C48.4904 143.624 48.2775 143.517 48.0536 143.438C47.4588 143.19 46.8438 142.992 46.2152 142.848C44.1198 142.395 41.9568 142.34 39.8408 142.686C37.7419 143.037 35.6803 143.581 33.6824 144.309C32.9144 144.58 32.3 144.813 31.8728 144.98C31.6525 145.056 31.439 145.15 31.2344 145.261V145.261Z" fill="#455A64"/>
<path d="M34.6758 139.716C35.3855 139.673 36.0972 139.673 36.807 139.716C37.4646 139.758 38.247 139.858 39.111 139.958C39.975 140.058 40.9302 140.177 41.919 140.363C43.6108 140.63 45.2325 141.227 46.6902 142.119C47.2719 142.521 47.8252 142.961 48.3462 143.438C48.2506 143.271 48.131 143.118 47.991 142.986C47.6311 142.601 47.2303 142.257 46.7958 141.958C45.3386 141.002 43.6921 140.368 41.967 140.096C40.9686 139.911 40.0086 139.801 39.1398 139.711C38.271 139.62 37.4838 139.544 36.8166 139.525C36.2908 139.502 35.764 139.524 35.2422 139.592C35.0484 139.606 34.8576 139.648 34.6758 139.716V139.716Z" fill="#455A64"/>
<path d="M45.4327 55.1589C42.6343 54.6829 40.1527 55.7539 37.8055 57.32C35.4032 58.9945 33.5725 61.3551 32.5572 64.0874C31.5419 66.8197 31.3902 69.7939 32.1223 72.6139C32.5277 74.047 33.2215 75.3838 34.1619 76.5439C35.1024 77.7039 36.27 78.6631 37.5943 79.3635C41.2375 81.1961 45.8983 80.5583 49.1623 78.1117C52.4263 75.665 54.2839 71.6238 54.4423 67.573C54.5935 64.7637 53.8514 61.9782 52.3207 59.6095C51.5447 58.4393 50.5339 57.4402 49.3513 56.6744C48.1687 55.9087 46.8397 55.3928 45.4471 55.1589" fill="#263238"/>
<path d="M37.4647 64.6076C37.8775 63.5414 37.7143 62.3561 37.8775 61.228C38.2375 58.748 40.2775 56.7584 42.5815 55.7921C44.7511 54.8924 47.3815 55.0876 50.0119 55.9254C51.8263 56.4707 53.4464 57.5175 54.6823 58.9432C55.4688 59.9105 56.01 61.0506 56.2606 62.2681C56.5111 63.4856 56.4637 64.7449 56.1223 65.9404L43.3255 64.0935C42.1255 65.0741 40.8967 66.0785 39.4423 66.6259C39.0231 66.8082 38.5635 66.8803 38.1079 66.8353C37.881 66.8085 37.6666 66.7175 37.4904 66.5732C37.3143 66.4289 37.1837 66.2373 37.1143 66.0213C36.9991 65.5406 37.2871 65.0693 37.4647 64.6076Z" fill="#263238"/>
<path d="M50.2853 59.4288L39.1109 61.7802C38.593 61.8143 38.1065 62.0384 37.7462 62.4089C37.3859 62.7794 37.1777 63.2697 37.1621 63.7842L37.2965 87.7698C37.3078 89.4075 37.861 90.9961 38.8709 92.2918L39.9365 93.6532C42.3701 96.7615 47.2901 96.4473 49.1477 92.9725C49.2613 92.7752 49.3485 92.5639 49.4069 92.3442C49.4405 92.13 49.4981 91.9872 49.5077 91.8063L49.7237 89.4644C49.8293 87.3319 49.8485 85.1804 49.8485 85.1804C49.8485 85.1804 54.4229 84.6092 55.6085 78.7639C56.1893 75.8603 56.2277 71.0575 56.1317 67.1305C56.0309 63.6128 53.8469 59.1955 50.2853 59.4288Z" fill="#FFBE9D"/>
<path d="M54.4181 71.6523C54.4118 71.8484 54.3285 72.0344 54.1859 72.1705C54.0433 72.3065 53.8528 72.3819 53.6549 72.3806C53.5577 72.3851 53.4606 72.3701 53.3694 72.3366C53.2782 72.3031 53.1947 72.2517 53.124 72.1855C53.0532 72.1193 52.9966 72.0397 52.9575 71.9514C52.9184 71.863 52.8977 71.7678 52.8965 71.6714C52.9039 71.4752 52.9874 71.2894 53.1296 71.1528C53.2718 71.0163 53.4617 70.9394 53.6597 70.9383C53.7571 70.9345 53.8543 70.9501 53.9455 70.9841C54.0367 71.0182 54.1202 71.07 54.1909 71.1365C54.2616 71.2031 54.3181 71.283 54.3571 71.3716C54.3961 71.4602 54.4169 71.5556 54.4181 71.6523V71.6523Z" fill="#263238"/>
<path d="M54.9746 69.6008C54.8738 69.696 54.317 69.2533 53.4962 69.2248C52.6754 69.1962 52.0562 69.577 51.9794 69.4723C51.9026 69.3676 52.037 69.2533 52.3058 69.0772C52.6698 68.8453 53.0978 68.7322 53.5298 68.7535C53.9542 68.7678 54.3629 68.9163 54.6962 69.1772C54.941 69.3818 55.0226 69.5627 54.9746 69.6008Z" fill="#263238"/>
<path d="M47.0832 71.4666C47.0782 71.6636 46.9954 71.8508 46.8527 71.9878C46.71 72.1249 46.5187 72.201 46.32 72.1997C46.2232 72.2035 46.1267 72.1881 46.036 72.1542C45.9454 72.1204 45.8625 72.069 45.7922 72.0028C45.722 71.9367 45.6658 71.8573 45.627 71.7693C45.5882 71.6813 45.5676 71.5865 45.5664 71.4904C45.5714 71.2943 45.6535 71.1079 45.7952 70.9709C45.9369 70.834 46.1269 70.7573 46.3248 70.7574C46.4218 70.7536 46.5186 70.769 46.6095 70.8028C46.7004 70.8365 46.7837 70.8879 46.8543 70.954C46.9249 71.02 46.9815 71.0994 47.0209 71.1874C47.0602 71.2755 47.0814 71.3704 47.0832 71.4666Z" fill="#263238"/>
<path d="M47.2041 69.4056C47.1033 69.5008 46.5465 69.0533 45.7257 69.0248C44.9049 68.9962 44.2857 69.377 44.2089 69.277C44.1321 69.1771 44.2665 69.0581 44.5401 68.8772C44.9039 68.6489 45.3292 68.536 45.7593 68.5535C46.1854 68.5705 46.5953 68.7204 46.9305 68.9819C47.1705 69.1818 47.2521 69.3627 47.2041 69.4056Z" fill="#263238"/>
<path d="M49.6565 75.5746C50.0943 75.4627 50.5436 75.4004 50.9957 75.3889C51.2069 75.3889 51.4037 75.3413 51.4469 75.2033C51.4715 74.9903 51.4314 74.7748 51.3317 74.5845C51.1541 74.0752 50.9669 73.5421 50.7749 72.9804C50.0021 70.7004 49.4549 68.8297 49.5461 68.8011C49.6373 68.7726 50.3429 70.5956 51.1109 72.8757C51.2933 73.4373 51.4709 73.9705 51.6389 74.4845C51.7622 74.7396 51.7894 75.03 51.7157 75.3033C51.6818 75.3747 51.6324 75.4378 51.571 75.4881C51.5096 75.5383 51.4377 75.5743 51.3605 75.5936C51.2436 75.6176 51.1245 75.6287 51.0053 75.6269C50.5553 75.6688 50.1017 75.6512 49.6565 75.5746V75.5746Z" fill="#263238"/>
<path d="M49.8488 85.2041C47.0555 85.1408 44.335 84.3085 41.9912 82.8003C41.9912 82.8003 43.8248 86.9463 49.7816 86.6083L49.8488 85.2041Z" fill="#EB996E"/>
<path d="M49.234 77.5167C49.0859 77.3165 48.8886 77.1572 48.6609 77.0539C48.4333 76.9506 48.1828 76.9068 47.9332 76.9265C47.7488 76.9362 47.5684 76.9834 47.4032 77.0653C47.238 77.1472 47.0916 77.262 46.9732 77.4025C46.8608 77.5321 46.7906 77.6924 46.7717 77.8623C46.7529 78.0322 46.7863 78.2037 46.8676 78.3545C46.9936 78.5045 47.1617 78.6139 47.3506 78.669C47.5394 78.7241 47.7405 78.7223 47.9284 78.6639C48.3211 78.5441 48.6853 78.3465 48.9988 78.0832C49.0947 78.0236 49.1779 77.946 49.2436 77.8547C49.2737 77.8095 49.2898 77.7565 49.2898 77.7024C49.2898 77.6482 49.2737 77.5952 49.2436 77.55" fill="#EB996E"/>
<path d="M47.2283 76.0457C47.3627 76.0457 47.3291 76.9216 48.0635 77.5784C48.7979 78.2353 49.7483 78.1734 49.7531 78.2972C49.7531 78.3496 49.5323 78.459 49.1339 78.4543C48.6125 78.4409 48.1128 78.2453 47.7227 77.9021C47.3519 77.5779 47.1215 77.1244 47.0795 76.636C47.0411 76.2504 47.1659 76.0362 47.2283 76.0457Z" fill="#263238"/>
<path d="M47.1555 66.997C47.0691 67.216 46.2531 67.078 45.2883 67.1541C44.3235 67.2303 43.5411 67.4635 43.4211 67.2588C43.3683 67.1636 43.5075 66.959 43.8291 66.759C44.2554 66.5088 44.7361 66.3635 45.2307 66.3354C45.7218 66.294 46.2158 66.3707 46.6707 66.5591C47.0403 66.7114 47.1939 66.8923 47.1555 66.997Z" fill="#263238"/>
<path d="M54.8743 66.045C54.7255 66.2259 54.1687 66.0117 53.4919 65.9736C52.8151 65.9355 52.2343 66.0498 52.1095 65.8546C52.0519 65.7594 52.1527 65.5785 52.4071 65.4119C52.7516 65.2103 53.151 65.1205 53.5495 65.1549C53.9467 65.1761 54.3274 65.3192 54.6391 65.5642C54.8695 65.7642 54.9415 65.9593 54.8743 66.045Z" fill="#263238"/>
<path d="M35.4152 62.8939C36.5768 59.5191 41.6552 54.9209 45.2168 55.2399L50.8808 58.7575C50.6747 59.7234 50.2089 60.6161 49.5329 61.3409C48.8569 62.0658 47.9958 62.5958 47.0408 62.8749C46.0184 63.1605 44.7992 63.2224 44.1608 64.0744C43.5224 64.9264 43.8632 66.2354 43.2728 67.1303C42.452 68.3774 40.2872 68.2727 39.6632 69.6246C39.3944 70.2148 39.5144 70.9288 39.2312 71.5286C38.8568 72.3092 36.8312 73.266 36.0008 72.9899C35.1704 72.7138 35.1992 71.3096 34.9448 70.567C34.6174 69.7317 34.5936 68.8094 34.8776 67.9586C35.2904 66.2878 34.8632 64.5028 35.4152 62.8939Z" fill="#263238"/>
<path d="M38.4584 73.7181C38.4584 73.2802 37.9784 72.2282 37.5704 72.1425C36.4136 71.9188 34.3112 71.9331 34.1768 74.8653C33.9944 78.8732 38.0888 78.2258 38.1032 78.1116C38.1176 77.9973 38.4008 75.2318 38.4584 73.7181Z" fill="#FFBE9D"/>
<path d="M36.9603 76.541C36.9603 76.541 36.8883 76.5838 36.7635 76.6314C36.5956 76.6984 36.4081 76.6984 36.2403 76.6314C35.8179 76.4553 35.4915 75.7651 35.5011 75.0464C35.5089 74.7011 35.5924 74.3616 35.7459 74.0515C35.7902 73.9283 35.8641 73.8176 35.9611 73.7289C36.058 73.6402 36.1752 73.5761 36.3027 73.5422C36.384 73.5238 36.4693 73.5348 36.5432 73.5732C36.6171 73.6116 36.6748 73.6748 36.7059 73.7516C36.7539 73.8659 36.7059 73.9468 36.7491 73.9516C36.7923 73.9563 36.8355 73.8897 36.8115 73.7231C36.7964 73.623 36.7452 73.5317 36.6675 73.466C36.6142 73.4209 36.5524 73.3866 36.4856 73.3654C36.4189 73.3441 36.3485 73.3363 36.2787 73.3423C36.1114 73.3684 35.9536 73.4363 35.8201 73.5396C35.6866 73.6428 35.5818 73.778 35.5155 73.9325C35.3289 74.2716 35.2284 74.6506 35.2227 75.0368C35.2227 75.846 35.5923 76.6219 36.1827 76.8171C36.2896 76.8527 36.4032 76.8643 36.5153 76.8511C36.6273 76.838 36.735 76.8003 36.8307 76.7409C36.9219 76.6362 36.9603 76.5457 36.9603 76.541Z" fill="#EB996E"/>
<path d="M34.5607 61.8799C34.5607 60.6233 32.9959 59.8046 31.7623 59.4999C30.5037 59.2855 29.2094 59.5307 28.1191 60.1901C27.4711 60.5424 26.8183 61.0469 26.6791 61.7657C26.5399 62.4844 27.2311 63.3412 27.9223 63.0842C27.5845 63.1938 27.2755 63.3764 27.0175 63.6189C26.7596 63.8613 26.5591 64.1576 26.4307 64.4862C26.3023 64.8149 26.2491 65.1677 26.2749 65.5192C26.3007 65.8708 26.405 66.2122 26.5801 66.5189C26.7552 66.8256 26.9969 67.0899 27.2876 67.2927C27.5782 67.4955 27.9107 67.6318 28.261 67.6917C28.6112 67.7515 28.9705 67.7335 29.3129 67.6388C29.6553 67.5442 29.9722 67.3754 30.2407 67.1445C29.8901 68.307 29.148 69.3151 28.1383 70.0005C29.1828 70.1491 30.2482 70.0222 31.2275 69.6326C32.2067 69.2429 33.0651 68.6043 33.7163 67.781C34.3674 66.9576 34.7883 65.9787 34.9366 64.9427C35.0848 63.9068 34.9552 62.8504 34.5607 61.8799Z" fill="#263238"/>
<path d="M31.7481 68.2299C31.6279 67.8401 31.576 67.4328 31.5945 67.0256C31.5784 65.0454 32.2343 63.1174 33.4569 61.5516C33.6877 61.2149 33.977 60.9216 34.3113 60.6853C33.4671 61.7542 32.7936 62.9454 32.3145 64.2172C31.5705 66.3592 31.8393 68.2347 31.7481 68.2299Z" fill="#B5B9BF"/>
<path d="M49.6992 57.5485C50.0688 59.1812 52.5792 61.2708 53.6688 62.5418C55.7616 64.9646 56.1744 65.769 56.1552 71.1907C57.144 69.32 57.9024 67.4826 57.8256 65.374C57.779 63.2379 56.9458 61.1927 55.4832 59.6239C54.7513 58.8585 53.8499 58.2725 52.8501 57.9123C51.8504 57.5521 50.7799 57.4275 49.7232 57.5485" fill="#263238"/>
<path d="M66.8405 102.14C66.8405 102.14 62.4821 94.9382 61.2725 93.4816C60.3012 92.3558 59.0807 91.468 57.7061 90.8874C57.1632 90.655 56.5944 90.4872 56.0117 90.3876L49.7429 89.012C49.7429 89.012 49.7429 93.2531 45.2549 93.5149C40.7669 93.7767 37.0037 87.584 37.0037 87.584C37.0037 87.584 29.7605 88.6978 28.0325 89.5832C26.3045 90.4685 23.5781 91.5871 22.0805 99.008L21.0293 106.281L33.5093 107.424L34.7045 125.816L40.8917 130.1C40.8917 130.1 58.0517 134.522 59.1317 134.813C60.2117 135.103 60.5717 107.433 60.5717 107.433C60.5717 107.433 65.0165 104.62 66.8405 102.14Z" fill="#DF5050"/>
<path d="M58.623 99.0461C58.7242 99.2144 58.8063 99.3932 58.8678 99.5793C59.007 99.9267 59.1894 100.436 59.391 101.074C60.4403 104.416 60.8729 107.918 60.6678 111.413C60.6294 112.079 60.5766 112.617 60.519 112.988C60.5063 113.182 60.4725 113.373 60.4182 113.559C60.3953 113.366 60.3953 113.172 60.4182 112.979C60.4422 112.607 60.471 112.069 60.4854 111.403C60.5322 109.67 60.452 107.936 60.2454 106.215C60.029 104.496 59.6857 102.795 59.2182 101.126C59.0406 100.484 58.8822 99.9648 58.767 99.6126C58.6991 99.4293 58.6508 99.2395 58.623 99.0461V99.0461Z" fill="#455A64"/>
<path d="M58.0808 129.172L34.5608 124.098L33.476 107.438L23.0264 106.486C23.0264 106.486 23.4152 117.872 23.8136 121.242C24.3944 126.112 27.2936 132.757 28.9928 134.094C30.692 135.432 59.1128 134.822 59.1128 134.822L58.0808 129.172Z" fill="#FFBE9D"/>
<path d="M71.4291 132.19C71.3509 132.351 71.2259 132.485 71.0702 132.575C70.9145 132.665 70.7352 132.707 70.5555 132.695C70.4788 132.689 70.4031 132.675 70.3299 132.652C69.8067 132.485 69.8499 131.433 69.8499 131.433L67.3635 131.033C67.3635 131.033 64.1235 133.104 62.9715 134.475C61.8195 135.846 58.8819 134.737 58.8819 134.737L57.8643 129.472L62.4483 125.364C62.4483 125.364 62.1699 125.607 62.4867 124.841C62.8035 124.074 64.2387 124.365 64.2387 124.365C64.4643 123.984 65.4051 123.851 65.4051 123.851L69.4275 124.327C69.8361 124.374 70.229 124.511 70.577 124.728C70.9251 124.946 71.2195 125.238 71.4387 125.583L73.1427 128.254C73.1427 128.254 74.0403 130.158 73.8963 130.634C73.8321 130.825 73.6977 130.985 73.5197 131.082C73.3417 131.179 73.1334 131.206 72.9363 131.157C72.9363 131.157 72.7395 132.423 72.4035 132.466C72.0603 132.448 71.7234 132.368 71.4099 132.228L71.4291 132.19Z" fill="#FFBE9D"/>
<path d="M62.8809 128.411C62.8809 128.453 63.4185 128.411 64.2777 128.439C65.3934 128.493 66.4965 128.698 67.5561 129.048C68.1393 129.243 68.7059 129.483 69.2505 129.767C69.7305 130.038 70.2393 130.243 70.3977 130.61C70.4334 130.686 70.4483 130.77 70.4407 130.853C70.4331 130.937 70.4033 131.017 70.3545 131.086C70.2817 131.198 70.1762 131.286 70.0521 131.338C69.938 131.377 69.8175 131.395 69.6969 131.39C69.6969 131.39 69.8217 131.5 70.0809 131.433C70.2373 131.391 70.3745 131.297 70.4697 131.167C70.5388 131.08 70.584 130.977 70.6008 130.867C70.6177 130.758 70.6055 130.646 70.5657 130.543C70.4634 130.314 70.2967 130.119 70.0857 129.981C69.8649 129.843 69.6345 129.696 69.3801 129.558C68.8288 129.258 68.2522 129.006 67.6569 128.806C66.5744 128.443 65.4395 128.258 64.2969 128.258C63.8197 128.235 63.3418 128.286 62.8809 128.411V128.411Z" fill="#EB996E"/>
<path d="M62.5928 130.952C62.5928 131.029 64.2344 130.952 66.2456 131.076C68.2568 131.2 69.8696 131.438 69.884 131.362C69.5484 131.231 69.1963 131.146 68.8376 131.11C67.9845 130.966 67.1239 130.871 66.26 130.824C65.395 130.776 64.5281 130.776 63.6632 130.824C63.3021 130.818 62.9419 130.861 62.5928 130.952V130.952Z" fill="#EB996E"/>
<path d="M71.4057 132.09C71.4411 131.951 71.4588 131.809 71.4585 131.666C71.483 131.276 71.483 130.885 71.4585 130.495C71.4449 130.223 71.408 129.952 71.3481 129.686C71.2758 129.374 71.142 129.08 70.9545 128.82C70.5583 128.217 70.0461 127.698 69.4473 127.292C68.8561 126.886 68.2097 126.565 67.5273 126.34C66.9613 126.181 66.3776 126.093 65.7897 126.078C65.3097 126.078 64.8969 126.078 64.6185 126.078C64.4731 126.068 64.3271 126.083 64.1865 126.121C64.7147 126.196 65.2468 126.24 65.7801 126.254C66.35 126.292 66.9136 126.394 67.4601 126.559C68.1149 126.796 68.7361 127.116 69.3081 127.511C69.8743 127.904 70.3625 128.398 70.7481 128.967C71.0638 129.43 71.2449 129.97 71.2713 130.529C71.3769 131.476 71.3529 132.09 71.4057 132.09Z" fill="#EB996E"/>
<path d="M65.6016 124.855C65.6016 124.893 66.2016 124.912 67.1616 125.021C68.1216 125.131 69.5616 125.226 70.4112 126.492C71.2286 127.437 71.9103 128.489 72.4368 129.619C72.611 130.105 72.7396 130.605 72.8208 131.114C72.8491 130.974 72.8491 130.83 72.8208 130.69C72.7962 130.304 72.717 129.922 72.5856 129.558C72.099 128.383 71.423 127.295 70.584 126.335C70.3599 126.041 70.0985 125.777 69.8064 125.55C69.5182 125.343 69.1921 125.194 68.8464 125.112C68.2893 124.964 67.7183 124.873 67.1424 124.84C66.63 124.785 66.1128 124.79 65.6016 124.855V124.855Z" fill="#EB996E"/>
<path d="M63.8408 133.627C63.9259 133.574 64.0062 133.514 64.0808 133.447L64.7528 132.909C65.5984 132.257 66.4815 131.655 67.3976 131.105H67.34L69.8264 131.524L69.74 131.419C69.7321 131.622 69.7482 131.824 69.788 132.023C69.8207 132.245 69.9193 132.452 70.0712 132.618C70.1623 132.7 70.276 132.753 70.3976 132.771C70.5134 132.792 70.6322 132.792 70.748 132.771C70.9897 132.735 71.21 132.613 71.3672 132.428C71.4092 132.385 71.4463 132.337 71.4776 132.285L71.5016 132.242L71.3576 132.295L71.4344 132.323C71.54 132.366 71.6456 132.404 71.756 132.437C71.8664 132.471 71.9768 132.499 72.0968 132.523C72.1591 132.528 72.2217 132.528 72.284 132.523C72.3632 132.528 72.4424 132.513 72.5144 132.48C72.6236 132.395 72.7067 132.281 72.7544 132.152C72.8052 132.043 72.8469 131.93 72.8792 131.814C72.9467 131.584 72.9996 131.351 73.0376 131.114L72.8936 131.214C73.0622 131.249 73.2372 131.238 73.4002 131.183C73.5632 131.128 73.7082 131.03 73.82 130.9C73.931 130.766 73.992 130.598 73.9928 130.424C73.9794 130.263 73.9504 130.104 73.9064 129.948C73.7179 129.342 73.4886 128.748 73.22 128.173L72.3128 126.745L71.7368 125.845C71.5618 125.53 71.3508 125.236 71.108 124.969C70.8508 124.712 70.5438 124.51 70.2056 124.374C69.876 124.253 69.5296 124.182 69.1784 124.165L65.3912 123.741H65.3624C65.1346 123.777 64.911 123.836 64.6952 123.917C64.4649 123.985 64.2629 124.126 64.1192 124.317L64.2584 124.274C64.0537 124.18 63.829 124.138 63.6038 124.15C63.3787 124.163 63.1601 124.23 62.9672 124.345C62.6313 124.588 62.4026 124.949 62.3288 125.355L62.3576 125.302L59.1992 128.12L58.3496 128.896C58.2449 128.981 58.1499 129.076 58.0664 129.182C58.179 129.108 58.285 129.026 58.3832 128.934L59.2712 128.196L62.4824 125.445H62.5064V125.412C62.5751 125.059 62.7756 124.744 63.068 124.531C63.233 124.438 63.418 124.386 63.6076 124.379C63.7971 124.371 63.9857 124.409 64.1576 124.488L64.244 124.522L64.2968 124.445C64.422 124.298 64.5894 124.192 64.7768 124.141C64.9775 124.068 65.1849 124.016 65.396 123.984H65.3624L69.1496 124.426C69.4778 124.446 69.8013 124.513 70.1096 124.626C70.416 124.748 70.6938 124.931 70.9256 125.164C71.1548 125.419 71.3544 125.698 71.5208 125.997L72.0968 126.902C72.4088 127.378 72.716 127.854 73.004 128.33C73.2711 128.89 73.4972 129.469 73.6808 130.062C73.7233 130.2 73.7506 130.342 73.7624 130.486C73.765 130.609 73.7224 130.729 73.6424 130.824C73.5608 130.919 73.4546 130.99 73.3354 131.029C73.2161 131.068 73.0883 131.075 72.9656 131.048H72.836V131.167C72.7994 131.393 72.7497 131.617 72.6872 131.838C72.6465 132.034 72.5574 132.217 72.428 132.371C72.3946 132.376 72.3606 132.376 72.3272 132.371H72.1736C72.0728 132.371 71.9672 132.323 71.8616 132.295L71.5544 132.19L71.4824 132.161L71.3336 132.214V132.242C71.3103 132.283 71.283 132.321 71.252 132.357C71.13 132.501 70.9597 132.598 70.772 132.628C70.6818 132.647 70.5886 132.647 70.4984 132.628C70.4137 132.62 70.3334 132.587 70.268 132.533C70.0574 132.231 69.962 131.865 69.9992 131.5V131.409H69.9128L67.4168 131.024H67.388H67.364C66.4509 131.59 65.5769 132.217 64.748 132.899C64.46 133.142 64.244 133.337 64.1 133.47C64.0082 133.513 63.9213 133.566 63.8408 133.627V133.627Z" fill="#EB996E"/>
<path d="M101.914 116.877L70.9681 117.129C69.9601 117.129 69.0049 117.605 68.8513 118.591L65.4913 140.963H49.5265C49.2917 140.98 49.072 141.084 48.9116 141.255C48.7513 141.426 48.6621 141.65 48.6621 141.884C48.6621 142.117 48.7513 142.342 48.9116 142.513C49.072 142.684 49.2917 142.788 49.5265 142.805H100.445L103.925 119.195C103.968 118.908 103.949 118.615 103.868 118.336C103.787 118.057 103.646 117.799 103.455 117.579C103.264 117.359 103.028 117.182 102.762 117.061C102.496 116.94 102.206 116.877 101.914 116.877V116.877Z" fill="#E0E0E0"/>
<path d="M101.914 116.877C102.076 116.871 102.237 116.887 102.394 116.925C102.806 117.022 103.177 117.242 103.457 117.557C103.738 117.871 103.913 118.264 103.959 118.681C103.971 119.105 103.932 119.528 103.844 119.943L103.397 123.06C102.716 127.749 101.736 134.508 100.517 142.819V142.9H100.436L51.0388 142.929H49.7092C49.4676 142.951 49.2244 142.905 49.0084 142.795C48.8433 142.706 48.7055 142.573 48.6095 142.413C48.5135 142.252 48.4629 142.068 48.4629 141.881C48.4629 141.695 48.5135 141.511 48.6095 141.35C48.7055 141.19 48.8433 141.057 49.0084 140.968C49.2252 140.86 49.4681 140.816 49.7092 140.839H65.4724L65.3524 140.944C66.5668 132.933 67.7044 125.459 68.7124 118.753C68.7457 118.305 68.9521 117.887 69.2885 117.586C69.6243 117.306 70.0339 117.126 70.4692 117.068C70.8839 117.028 71.3008 117.013 71.7172 117.025H72.9316L77.5924 116.996L85.8724 116.944L97.6613 116.882H101.904C101.904 116.882 101.813 116.882 101.631 116.882H100.815L97.6613 116.925L85.8724 117.053L77.5924 117.139L72.9316 117.182H71.7172C71.312 117.174 70.9066 117.189 70.5028 117.225C70.1041 117.277 69.7291 117.442 69.4228 117.701C69.2735 117.834 69.1521 117.995 69.0656 118.175C68.9792 118.354 68.9293 118.549 68.9188 118.748C67.9108 125.455 66.7876 132.928 65.5588 140.939V141.044H49.7188C49.5216 141.019 49.3213 141.052 49.1428 141.139C48.9804 141.231 48.855 141.377 48.7877 141.55C48.7204 141.723 48.7153 141.914 48.7732 142.091C48.8419 142.27 48.9708 142.419 49.138 142.515C49.3184 142.601 49.5196 142.636 49.7188 142.615H51.0484L100.445 142.643L100.349 142.724C101.592 134.418 102.6 127.663 103.301 122.975C103.479 121.809 103.637 120.766 103.781 119.866C103.87 119.458 103.914 119.042 103.911 118.624C103.871 118.217 103.705 117.831 103.436 117.52C103.167 117.21 102.808 116.988 102.408 116.887C102.244 116.875 102.079 116.872 101.914 116.877V116.877Z" fill="#263238"/>
<path d="M85.1287 131.481C86.1996 131.481 87.0679 130.62 87.0679 129.558C87.0679 128.496 86.1996 127.635 85.1287 127.635C84.0577 127.635 83.1895 128.496 83.1895 129.558C83.1895 130.62 84.0577 131.481 85.1287 131.481Z" fill="white"/>
<path d="M66.7209 142.595C66.7641 142.595 67.7481 136.907 68.9193 129.877C70.0905 122.846 71.0073 117.134 70.9641 117.129C70.9209 117.125 69.9321 122.818 68.7609 129.848C67.5897 136.879 66.6825 142.591 66.7209 142.595Z" fill="#263238"/>
</svg>
